<svg xmlns="http://www.w3.org/2000/svg" viewBox="0 0 100 100" xmlns:c2pa="http://c2pa.org/manifest"><metadata><c2pa:manifest>AAAWgmp1bWIAAAAeanVtZGMycGEAEQAQgAAAqgA4m3EDYzJwYQAAABZcanVtYgAAAEdqdW1kYzJtYQARABCAAACqADibcQN1cm46YzJwYTpjNmM4MzNlNy1lY2Y5LTRlNjItOGZjNS0yYWM1OTcwYTA4ZTMAAAADl2p1bWIAAAApanVtZGMyYXMAEQAQgAAAqgA4m3EDYzJwYS5hc3NlcnRpb25zAAAAALxqdW1iAAAARGp1bWRjYm9yABEAEIAAAKoAOJtxE2MycGEuaW5ncmVkaWVudC52MwAAAAAYYzJzaLV/DC9fii16iMjACXyEdTUAAABwY2JvcqNpZGM6Zm9ybWF0bWltYWdlL3N2Zyt4bWxqaW5zdGFuY2VJRHgseG1wOmlpZDozNzlmYjdjNy1kNGU0LTQ0NzUtYTNhMi03NzJiZGNkMzE0YTdscmVsYXRpb25zaGlwaHBhcmVudE9mAAAB4mp1bWIAAABBanVtZGNib3IAEQAQgAAAqgA4m3ETYzJwYS5hY3Rpb25zLnYyAAAAABhjMnNo/pt6JzC/DG5NFeuIdPBBuAAAAZljYm9yomdhY3Rpb25zgqJmYWN0aW9ua2MycGEub3BlbmVkanBhcmFtZXRlcnOha2luZ3JlZGllbnRzgaJjdXJseC1zZWxmI2p1bWJmPWMycGEuYXNzZXJ0aW9ucy9jMnBhLmluZ3JlZGllbnQudjNkaGFzaFggmitGSjkCAAhttMDjjt9ds5GvLMMpjfsKZ4cgrGbnSgmkZmFjdGlvbngdY29tLmFudGhyb3BpYy5jbGF1ZGUucHJvdmlkZWRqcGFyYW1ldGVyc6F4H2NvbS5hbnRocm9waWMub3JpZ2luLWNvbmZpZGVuY2VndW5rbm93bmtkZXNjcmlwdGlvbnhmQ2xhdWRlIHByb3ZpZGVkIHRoaXMgZmlsZSBhdCB0aGUgcmVxdWVzdCBvZiBhIHVzZXIgYW5kIG1heSBoYXZlIGNyZWF0ZWQgb3IgbW9kaWZpZWQgdGhlIGZpbGUgY29udGVudHMubXNvZnR3YXJlQWdlbnShZG5hbWVmQ2xhdWRlcmFsbEFjdGlvbnNJbmNsdWRlZPUAAADIanVtYgAAAEBqdW1kY2JvcgARABCAAACqADibcRNjMnBhLmhhc2guZGF0YQAAAAAYYzJzaHbREeVvLLC6W4ziPzcJxPEAAACAY2JvcqVjYWxnZnNoYTI1NmNwYWRNAAAAAAAAAAAAAAAAAGRoYXNoWCClZEnSE3chjaqWP1IZftCVj7VdRkknjp1LK9g8ihmXi2RuYW1lbmp1bWJmIG1hbmlmZXN0amV4Y2x1c2lvbnOBomVzdGFydBh9Zmxlbmd0aBkeBAAAAj5qdW1iAAAAJ2p1bWRjMmNsABEAEIAAAKoAOJtxA2MycGEuY2xhaW0udjIAAAACD2Nib3KlY2FsZ2ZzaGEyNTZpc2lnbmF0dXJleE1zZWxmI2p1bWJmPS9jMnBhL3VybjpjMnBhOmM2YzgzM2U3LWVjZjktNGU2Mi04ZmM1LTJhYzU5NzBhMDhlMy9jMnBhLnNpZ25hdHVyZWppbnN0YW5jZUlEeCx4bXA6aWlkOjdjYzk1MGFkLWRlYTMtNDg4NC04M2M3LTdkMDQ1NjYyMTc4NnJjcmVhdGVkX2Fzc2VydGlvbnODomN1cmx4LXNlbGYjanVtYmY9YzJwYS5hc3NlcnRpb25zL2MycGEuaW5ncmVkaWVudC52M2RoYXNoWCCaK0ZKOQIACG20wOOO312zka8swymN+wpnhyCsZudKCaJjdXJseCpzZWxmI2p1bWJmPWMycGEuYXNzZXJ0aW9ucy9jMnBhLmFjdGlvbnMudjJkaGFzaFggAxUATCWFpoGVLCwVfqkeLCp6UPAwqhTgmVxzGuN2pLuiY3VybHgpc2VsZiNqdW1iZj1jMnBhLmFzc2VydGlvbnMvYzJwYS5oYXNoLmRhdGFkaGFzaFggkI2AuflP1HPHhs3GMwz18TmEBBvwh+2dHD4XBbbBbDl0Y2xhaW1fZ2VuZXJhdG9yX2luZm+jZG5hbWVvQW50aHJvcGljIEZpbGVzZ3ZlcnNpb25lMS4wLjBrc3BlY1ZlcnNpb25lMi40LjAAABA4anVtYgAAAChqdW1kYzJjcwARABCAAACqADibcQNjMnBhLnNpZ25hdHVyZQAAABAIY2JvctKEWQISogEmGCFZAgowggIGMIIBjaADAgECAhRA5aAK7sI50L64g/oGQgU9Z1UTADAKBggqhkjOPQQDAzBJMRcwFQYDVQQKEw5BbnRocm9waWMsIFBCQzEuMCwGA1UEAxMlQW50aHJvcGljIENvbnRlbnQgQ3JlZGVudGlhbHMgUm9vdCBDQTAeFw0yNjA4MDcxODQzNTZaFw0yODA4MDYxOTQzNTZaMEQxFzAVBgNVBAoTDkFudGhyb3BpYywgUEJDMSkwJwYDVQQDEyBBbnRocm9waWMgQ2xhdWRlIENvbnRlbnQgU2lnbmluZzBZMBMGByqGSM49AgEGCCqGSM49AwEHA0IABJh6CmvLUBgFFNU0vUKlOVtE6djd17L5SuwX0LemFisBM3dkd/3cyjxFA3Qo5S46fX0/ihY0VZ7mfb9KF703t5OjWDBWMA4GA1UdDwEB/wQEAwIHgDAVBgNVHSUEDjAMBgorBgEEAYPoXgIBMAwGA1UdEwEB/wQCMAAwHwYDVR0jBBgwFoAUzlHiBIFOZFsj+OPEz5o+nMHXXMIwCgYIKoZIzj0EAwMDZwAwZAIwMXMdFJ4BetLLVY7ORuE9noqbbAZOZn/aArXyTwFAZfKrPzxF2vPoJNf1+UCdg1XGAjBwX1zd9WGqYkqmL5SFqw1QySjr1zJfpJM9+1rdDwSPLMOPOjKuiXjoU/pUUeG9RwmhY3BhZFkNngAAAAAAAAAAAAAAAAAAAAAAAAAAAAAAAAAAAAAAAAAAAAAAAAAAAAAAAAAAAAAAAAAAAAAAAAAAAAAAAAAAAAAAAAAAAAAAAAAAAAAAAAAAAAAAAAAAAAAAAAAAAAAAAAAAAAAAAAAAAAAAAAAAAAAAAAAAAAAAAAAAAAAAAAAAAAAAAAAAAAAAAAAAAAAAAAAAAAAAAAAAAAAAAAAAAAAAAAAAAAAAAAAAAAAAAAAAAAAAAAAAAAAAAAAAAAAAAAAAAAAAAAAAAAAAAAAAAAAAAAAAAAAAAAAAAAAAAAAAAAAAAAAAAAAAAAAAAAAAAAAAAAAAAAAAAAAAAAAAAAAAAAAAAAAAAAAAAAAAAAAAAAAAAAAAAAAAAAAAAAAAAAAAAAAAAAAAAAAAAAAAAAAAAAAAAAAAAAAAAAAAAAAAAAAAAAAAAAAAAAAAAAAAAAAAAAAAAAAAAAAAAAAAAAAAAAAAAAAAAAAAAAAAAAAAAAAAAAAAAAAAAAAAAAAAAAAAAAAAAAAAAAAAAAAAAAAAAAAAAAAAAAAAAAAAAAAAAAAAAAAAAAAAAAAAAAAAAAAAAAAAAAAAAAAAAAAAAAAAAAAAAAAAAAAAAAAAAAAAAAAAAAAAAAAAAAAAAAAAAAAAAAAAAAAAAAAAAAAAAAAAAAAAAAAAAAAAAAAAAAAAAAAAAAAAAAAAAAAAAAAAAAAAAAAAAAAAAAAAAAAAAAAAAAAAAAAAAAAAAAAAAAAAAAAAAAAAAAAAAAAAAAAAAAAAAAAAAAAAAAAAAAAAAAAAAAAAAAAAAAAAAAAAAAAAAAAAAAAAAAAAAAAAAAAAAAAAAAAAAAAAAAAAAAAAAAAAAAAAAAAAAAAAAAAAAAAAAAAAAAAAAAAAAAAAAAAAAAAAAAAAAAAAAAAAAAAAAAAAAAAAAAAAAAAAAAAAAAAAAAAAAAAAAAAAAAAAAAAAAAAAAAAAAAAAAAAAAAAAAAAAAAAAAAAAAAAAAAAAAAAAAAAAAAAAAAAAAAAAAAAAAAAAAAAAAAAAAAAAAAAAAAAAAAAAAAAAAAAAAAAAAAAAAAAAAAAAAAAAAAAAAAAAAAAAAAAAAAAAAAAAAAAAAAAAAAAAAAAAAAAAAAAAAAAAAAAAAAAAAAAAAAAAAAAAAAAAAAAAAAAAAAAAAAAAAAAAAAAAAAAAAAAAAAAAAAAAAAAAAAAAAAAAAAAAAAAAAAAAAAAAAAAAAAAAAAAAAAAAAAAAAAAAAAAAAAAAAAAAAAAAAAAAAAAAAAAAAAAAAAAAAAAAAAAAAAAAAAAAAAAAAAAAAAAAAAAAAAAAAAAAAAAAAAAAAAAAAAAAAAAAAAAAAAAAAAAAAAAAAAAAAAAAAAAAAAAAAAAAAAAAAAAAAAAAAAAAAAAAAAAAAAAAAAAAAAAAAAAAAAAAAAAAAAAAAAAAAAAAAAAAAAAAAAAAAAAAAAAAAAAAAAAAAAAAAAAAAAAAAAAAAAAAAAAAAAAAAAAAAAAAAAAAAAAAAAAAAAAAAAAAAAAAAAAAAAAAAAAAAAAAAAAAAAAAAAAAAAAAAAAAAAAAAAAAAAAAAAAAAAAAAAAAAAAAAAAAAAAAAAAAAAAAAAAAAAAAAAAAAAAAAAAAAAAAAAAAAAAAAAAAAAAAAAAAAAAAAAAAAAAAAAAAAAAAAAAAAAAAAAAAAAAAAAAAAAAAAAAAAAAAAAAAAAAAAAAAAAAAAAAAAAAAAAAAAAAAAAAAAAAAAAAAAAAAAAAAAAAAAAAAAAAAAAAAAAAAAAAAAAAAAAAAAAAAAAAAAAAAAAAAAAAAAAAAAAAAAAAAAAAAAAAAAAAAAAAAAAAAAAAAAAAAAAAAAAAAAAAAAAAAAAAAAAAAAAAAAAAAAAAAAAAAAAAAAAAAAAAAAAAAAAAAAAAAAAAAAAAAAAAAAAAAAAAAAAAAAAAAAAAAAAAAAAAAAAAAAAAAAAAAAAAAAAAAAAAAAAAAAAAAAAAAAAAAAAAAAAAAAAAAAAAAAAAAAAAAAAAAAAAAAAAAAAAAAAAAAAAAAAAAAAAAAAAAAAAAAAAAAAAAAAAAAAAAAAAAAAAAAAAAAAAAAAAAAAAAAAAAAAAAAAAAAAAAAAAAAAAAAAAAAAAAAAAAAAAAAAAAAAAAAAAAAAAAAAAAAAAAAAAAAAAAAAAAAAAAAAAAAAAAAAAAAAAAAAAAAAAAAAAAAAAAAAAAAAAAAAAAAAAAAAAAAAAAAAAAAAAAAAAAAAAAAAAAAAAAAAAAAAAAAAAAAAAAAAAAAAAAAAAAAAAAAAAAAAAAAAAAAAAAAAAAAAAAAAAAAAAAAAAAAAAAAAAAAAAAAAAAAAAAAAAAAAAAAAAAAAAAAAAAAAAAAAAAAAAAAAAAAAAAAAAAAAAAAAAAAAAAAAAAAAAAAAAAAAAAAAAAAAAAAAAAAAAAAAAAAAAAAAAAAAAAAAAAAAAAAAAAAAAAAAAAAAAAAAAAAAAAAAAAAAAAAAAAAAAAAAAAAAAAAAAAAAAAAAAAAAAAAAAAAAAAAAAAAAAAAAAAAAAAAAAAAAAAAAAAAAAAAAAAAAAAAAAAAAAAAAAAAAAAAAAAAAAAAAAAAAAAAAAAAAAAAAAAAAAAAAAAAAAAAAAAAAAAAAAAAAAAAAAAAAAAAAAAAAAAAAAAAAAAAAAAAAAAAAAAAAAAAAAAAAAAAAAAAAAAAAAAAAAAAAAAAAAAAAAAAAAAAAAAAAAAAAAAAAAAAAAAAAAAAAAAAAAAAAAAAAAAAAAAAAAAAAAAAAAAAAAAAAAAAAAAAAAAAAAAAAAAAAAAAAAAAAAAAAAAAAAAAAAAAAAAAAAAAAAAAAAAAAAAAAAAAAAAAAAAAAAAAAAAAAAAAAAAAAAAAAAAAAAAAAAAAAAAAAAAAAAAAAAAAAAAAAAAAAAAAAAAAAAAAAAAAAAAAAAAAAAAAAAAAAAAAAAAAAAAAAAAAAAAAAAAAAAAAAAAAAAAAAAAAAAAAAAAAAAAAAAAAAAAAAAAAAAAAAAAAAAAAAAAAAAAAAAAAAAAAAAAAAAAAAAAAAAAAAAAAAAAAAAAAAAAAAAAAAAAAAAAAAAAAAAAAAAAAAAAAAAAAAAAAAAAAAAAAAAAAAAAAAAAAAAAAAAAAAAAAAAAAAAAAAAAAAAAAAAAAAAAAAAAAAAAAAAAAAAAAAAAAAAAAAAAAAAAAAAAAAAAAAAAAAAAAAAAAAAAAAAAAAAAAAAAAAAAAAAAAAAAAAAAAAAAAAAAAAAAAAAAAAAAAAAAAAAAAAAAAAAAAAAAAAAAAAAAAAAAAAAAAAAAAAAAAAAAAAAAAAAAAAAAAAAAAAAAAAAAAAAAAAAAAAAAAAAAAAAAAAAAAAAAAAAAAAAAAAAAAAAAAAAAAAAAAAAAAAAAAAAAAAAAAAAAAAAAAAAAAAAAAAAAAAAAAAAAAAAAAAAAAAAAAAAAAAAAAAAAAAAAAAAAAAAAAAAAAAAAAAAAAAAAAAAAAAAAAAAAAAAAAAAAAAAAAAAAAAAAAAAAAAAAAAAAAAAAAAAAAAAAAAAAAAAAAAAAAAAAAAAAAAAAAAAAAAAAAAAAAAAAAAAAAAAAAAAAAAAAAAAAAAAAAAAAAAAAAAAAAAAAAAAAAAAAAAAAAAAAAAAAAAAAAAAAAAAAAAAAAAAAAAAAAAAAAAAAAAAAAAAAAAAAAAAAAAAAAAAAAAAAAAAAAAAAAAAAAAAAAAAAAAAAAAAAAAAAAAAAAAAAAAAAAAAAAAAAAAAAAAAAAAAAAAAAAAAAAAAAAAAAAAAAAAAAAAAAAAAAAAAAAAAAAAAAAAAAAAAAAAAAAAAAAAAAAAAAAAAAAAAAAAAAAAAAAAAAAAAAAAAAAAAAAAAAAAAAAAAAAAAAAAAAAAAAAAAAAAAAAAAAAAAAAAAAAAAAAAAAAAAAAAAAAAAAAAAAAAAAAAAAAAAAAAAAAAAAAAAAAAAAAAAAAAAAAAAAAAAAAAAAAAAAAAAAAAAAAAAAAAAAAAAAAAAAAAAAAAAAAAAAAAAAAAAAAAAAAAAAAAAAAAAAAAAAAAAAAAAAAAAAAAAAAAAAAAAAAAAAAAAAAAAAAAAAAAAAAAAAAAAAAAAAAAAAAAAAAAAAAAAAAAAAAAAAAAAAAAAAAAAAAAAAAAAAAAAAAAAAAAAAAAAAAAAAAAAAAAAAAAAAAAAAAAAAAAAAAAAAAAAAAAAAAAAAAAAAAAAAAAAAAAAAAAAAAAAAAAAAAAAAAAAAAAAAAAAAAAAAAAAAAAAAAAAAAAAAAAAAAAAAAAAAAAAAAAAAAAAAAAAAAAAAAAAAAAAAAAAAAAAAAAAAAAAAAAAAAAAAAAAAAAAAAAAAAAAAAAAAAAAAAAAAAAAAAAAAAAAAAAAAAAAAAAAAAAAAAAAAAAAAAAAAAAAAAAAAAAAAAAAAAAAAAAAAAAAAAAAAAAAAAAAAAAAAAAAAAAAAAAAAAAAAAAAAAAAAAAAAAAAAAAAAAAAAAAAAAAAAAAAAAAAAAAAAAAAAAAAAAAAAAAAAAAAAAAAAAAAAAAAAAAAAAAAAAAAAAAAAAAAAAAAAAAAAAAAAAAAAAAAAAAAAAAAAAAAAAAAAAAAAAAAAAAAAAAAAAAAAAAAAAAAAAAAAAAAAAAAAAAAAAAAAAAAAAPZYQLfA6dG5vU44MG12LIxVT73h68Kx/F0wzF+1g2VyRmwi0JxvQjqKZaX0cD6yuNTeVjslT1eu24gBHfgPeXRUyng=</c2pa:manifest></metadata><path fill-rule="evenodd" d="M21.1 95C20 94.8 19.5 94.2 19.5 92.9C19.5 92 19.6 91.7 20.1 91.2C20.4 90.9 20.7 90.7 21.2 90.7L21.4 90.6L21.4 90L21.4 89.5L21 89.5C20.4 89.5 19.8 89.4 19.4 89.2C18.5 88.9 17.6 88 17.5 87C17.4 86.4 17.4 33.8 17.5 33.2C17.6 32.6 17.8 32.1 18.3 31.6C18.8 31.1 19.3 30.8 19.9 30.7C20.2 30.7 21.7 30.7 27.6 30.7L35 30.7L35 29.3C35 27.9 35 27.8 35.1 27.6C35.3 27.1 35.7 26.8 36.3 26.7C36.4 26.6 36.4 26.4 36.4 25.7L36.4 24.7L34.2 22.6C33 21.4 31.3 19.8 30.4 18.9C28 16.6 28.1 16.9 28.1 13.5L28.1 11.3L27.8 11.3C27.5 11.3 27.1 11.2 26.6 11.1C26.4 11 26.3 10.9 26 10.6C25.5 10.1 25.4 9.9 25.4 8.4C25.3 6.6 25.4 6.1 26.1 5.6C26.3 5.3 26.4 5.2 26.8 5.1L27.1 5L43.9 5L60.6 5L61 5.1C61.3 5.2 61.4 5.3 61.6 5.5C62.2 6.1 62.3 6.4 62.3 8C62.3 9.6 62.2 10.2 61.8 10.6C61.4 11 60.9 11.2 60.1 11.2L59.6 11.3L59.6 13.7C59.5 16.1 59.5 16.1 59.4 16.4C59.2 17 59 17.2 58.1 18.1C57.6 18.6 56.5 19.6 55.6 20.5C54.7 21.4 53.4 22.6 52.7 23.2C52 23.9 51.4 24.5 51.2 24.6L51 24.8L51 25.8L51 26.7L51.2 26.7C51.5 26.8 51.8 26.9 52 27.2C52.4 27.6 52.4 27.8 52.5 29.3L52.5 30.7L66 30.7C75.2 30.7 79.8 30.7 80 30.7C81.1 30.9 82.1 31.7 82.4 32.7C82.5 32.9 82.6 33.3 82.6 33.5C82.7 33.8 82.7 42.4 82.7 60.1C82.7 81.7 82.7 86.3 82.6 86.8C82.4 87.9 81.7 88.9 80.6 89.2C80.3 89.4 79.6 89.5 79 89.5L78.7 89.5L78.7 90L78.7 90.6L78.9 90.7C79.3 90.7 79.7 90.9 80 91.2C80.3 91.6 80.4 91.8 80.5 92.5C80.6 93 80.5 93.5 80.4 94C80.3 94.2 80.2 94.3 80 94.6C79.7 94.9 79.5 95 78.8 95.1C78.4 95.1 73.4 95.1 73 95.1C72.1 94.9 71.6 94.5 71.4 93.9C71.2 93.2 71.2 92.3 71.5 91.7C71.5 91.6 71.7 91.3 71.8 91.2C72.2 90.9 72.5 90.7 72.9 90.7L73.2 90.6L73.2 90L73.2 89.5L50 89.5L26.9 89.5L26.9 90L26.9 90.6L27.2 90.7C27.6 90.7 27.9 90.9 28.3 91.2C28.7 91.6 28.8 91.9 28.8 92.7C28.9 94.2 28.4 94.8 27.2 95C26.7 95.1 21.6 95.1 21.1 95ZM26.5 93C26.7 92.9 26.8 92.8 26.6 92.7C26.4 92.7 22 92.7 21.8 92.7C21.6 92.8 21.6 92.9 21.8 93C22 93 26.4 93 26.5 93ZM78.3 93C78.3 93 78.4 92.9 78.4 92.8C78.4 92.7 78.2 92.7 75.7 92.7C73.8 92.7 73.5 92.7 73.4 92.8C73.3 92.9 73.3 92.9 73.5 93C73.7 93 78.2 93 78.3 93ZM24.9 90L24.9 89.5L24.2 89.5L23.5 89.5L23.5 90L23.5 90.6L24.2 90.6L24.9 90.6L24.9 90ZM76.5 90L76.5 89.5L75.9 89.5L75.3 89.5L75.3 90L75.3 90.6L75.9 90.6L76.5 90.6L76.5 90ZM79.5 87.3C80 87.2 80.2 87.1 80.3 86.9C80.5 86.5 80.6 85.9 80.6 80.4L80.6 75.1L50 75.1L19.5 75.1L19.5 80.6C19.5 84.2 19.5 86.2 19.6 86.5C19.6 87 19.8 87.2 20.4 87.3C21 87.4 78.8 87.4 79.5 87.3ZM64 53.4C64 42.5 64 33.5 64 33.2L63.9 32.8L42.1 32.8C25 32.8 20.3 32.8 20.2 32.9C19.9 32.9 19.7 33.2 19.6 33.4C19.5 33.6 19.5 37.9 19.5 53.3L19.5 73L41.7 73L64 73L64 53.4ZM80.5 53.4C80.5 38.3 80.5 33.8 80.5 33.6C80.4 33.4 80.3 33.2 80.3 33.1C80 32.8 80.5 32.8 72.9 32.8L66 32.8L66.1 32.9C66.1 33 66.1 42.1 66.1 53L66.1 73L73.3 73L80.6 73L80.5 53.4ZM27 71.5C24.3 71.4 24.2 71.4 24 71.3C22.9 70.9 22.3 70.2 22 69.2C21.9 68.9 21.9 68.1 21.9 53.1L21.9 37.3L22 36.9C22.2 36.3 22.4 36 22.8 35.6C23.2 35.1 23.7 34.9 24.4 34.8C24.9 34.6 59.2 34.6 59.8 34.7C60.4 34.9 60.9 35.1 61.4 35.6C62 36.2 62.1 36.6 62.2 37.5C62.3 38.3 62.3 67.9 62.2 68.6C62.1 69.6 61.9 70.1 61.3 70.7C61 71 60.9 71 60.5 71.2C60.3 71.3 59.9 71.4 59.8 71.4C59.5 71.5 32.4 71.5 27 71.5ZM54.1 69.4L56.8 69.3L56.8 68.2L56.8 67L49.2 67C45 67 41.5 67 41.5 67C41.4 67 39.4 67 37 67.1C34.5 67.1 31.9 67.1 31.1 67.1L29.7 67.1L29.7 68.2L29.7 69.3L31.1 69.3C34.7 69.4 51.7 69.4 54.1 69.4ZM27.6 67.7C27.6 66.2 27.6 66.1 27.8 65.9C27.9 65.5 28.2 65.3 28.5 65.1C28.8 65 28.9 65 29.9 65L31.1 65L31 64.7C30.9 64.3 30.9 59.8 31 59.3C31.2 58.5 31.8 57.7 32.5 57.3C32.8 57.2 33 57.1 33.1 57.1C33.2 57.1 33.3 57.1 33.3 57.1C33.3 57.1 33.2 57 33.1 56.8C33.1 56.6 33 56.5 33 56.2L33 55.9L32.8 55.9C32.5 55.8 32 55.4 31.9 55L31.8 54.8L31.8 51.9L31.7 49L31.5 49C31.2 48.9 30.9 48.5 30.7 48.2L30.6 47.9L30.6 45L30.6 42L30.7 41.7C30.8 41.6 30.9 41.4 31.1 41.2C31.5 40.9 31.6 40.8 33.4 40.8L34.9 40.8L35 40.4C35 40.1 35 39.2 35 38.3L35 36.8L30.1 36.8C26.8 36.8 25.1 36.8 24.9 36.8C24.4 36.9 24.2 37 24.1 37.4C24 37.7 24 38.6 24 52.8C24 68 24 68.6 24.1 68.9C24.2 69.1 24.4 69.2 24.7 69.3C24.9 69.3 25.6 69.3 26.3 69.3L27.6 69.3L27.6 67.7ZM59.7 69.2C60 69.1 60.1 68.9 60.1 68.2C60.2 67.5 60.2 38.7 60.1 37.9C60 37.1 60 36.9 59.3 36.8C59.1 36.8 57.7 36.8 55.7 36.8L52.5 36.8L52.5 38.8L52.5 40.8L53.8 40.8C55.2 40.8 55.4 40.9 55.8 41.2C56 41.4 56.1 41.6 56.2 41.7L56.3 42L56.3 45L56.3 47.9L56.2 48.2C56 48.5 55.6 48.9 55.3 49L55 49.1L55 51.9C55 55.1 55 55 54.6 55.5C54.4 55.7 54.3 55.8 54.1 55.9L53.8 56L53.8 56.3C53.8 56.6 53.8 56.6 53.7 56.9L53.6 57.1L53.7 57.1C53.8 57.1 54 57.2 54.2 57.3C54.5 57.5 54.6 57.6 55 57.9C55.4 58.4 55.5 58.7 55.7 59.3C55.8 59.8 55.8 64.4 55.7 64.7L55.6 64.9L56.7 64.9C57.9 65 58.1 65 58.5 65.4C58.9 65.9 59 66 59 67.8L59 69.3L59.2 69.3C59.4 69.3 59.6 69.2 59.7 69.2ZM72.6 66.3C72.1 66.2 71.7 65.9 71.3 65.5C70.7 64.9 70.5 64.5 70.5 63.5C70.6 62.6 70.8 62.1 71.4 61.5C71.7 61.2 71.9 61.1 72.2 61C72.6 60.8 72.6 60.8 73.3 60.8C74.1 60.8 74.1 60.8 74.5 61C74.9 61.1 75.4 61.5 75.7 62C75.8 62.1 75.9 62.4 76 62.6C76.2 63.4 76.2 64.2 75.8 64.9C75.7 65.2 75 65.9 74.7 66.1C74.1 66.3 73.3 66.4 72.6 66.3ZM34.3 64.9C34.3 64.9 34.4 64.7 34.4 64.4C34.4 64.2 34.5 63.8 34.5 63.5L34.5 63.1L33.7 63.1L33 63.1L33 63.6C33.1 63.9 33.1 64.3 33.2 64.5L33.2 65L33.8 65C34.1 65 34.3 65 34.3 64.9ZM37.4 64.8C37.3 64.5 37.3 63.8 37.3 62.1C37.3 59.9 37.3 59.4 37.6 58.8C37.7 58.4 37.8 58.3 38.1 57.9C38.5 57.6 38.6 57.5 38.9 57.3C39.1 57.2 39.3 57.1 39.4 57.1C39.5 57.1 39.6 57.1 39.5 57C39.3 56.8 39.2 56.5 39.2 56.2L39.2 55.9L39 55.9C38.7 55.8 38.3 55.4 38.1 55L38 54.8L38 51.9L38 49.1L37.2 49.1L36.4 49.1L36.4 51.9C36.4 55.1 36.4 55 36 55.5C35.8 55.7 35.6 55.8 35.4 55.9L35.2 56L35.2 56.3C35.2 56.6 35.1 56.9 34.9 57.1C34.9 57.1 34.8 57.2 34.8 57.2C34.8 57.2 35 57.3 35.1 57.4C35.5 57.6 36.1 58.1 36.3 58.5C36.6 59.2 36.6 59.4 36.6 62.2C36.5 63.6 36.5 64.8 36.5 64.8C36.5 65 36.5 65 37 65C37.5 65 37.5 65 37.4 64.8ZM40.2 64.9L40.7 64.9L40.8 64.6C40.8 64.4 40.9 64 40.9 63.7L40.9 63.1L40.1 63.1L39.4 63.1L39.4 63.6C39.5 63.9 39.5 64.3 39.5 64.4C39.6 64.5 39.6 64.7 39.6 64.8C39.6 64.9 39.6 65 39.7 65C39.7 64.9 40 64.9 40.2 64.9ZM43.8 64.6C43.7 64.1 43.7 60.2 43.8 59.6C43.9 58.8 44.1 58.3 44.7 57.8C44.9 57.5 45.1 57.4 45.4 57.3C45.8 57.1 45.8 57.1 45.7 57C45.6 56.8 45.5 56.5 45.5 56.2L45.5 55.9L45.2 55.9C44.9 55.8 44.5 55.4 44.3 55C44.2 54.7 44.2 54.7 44.2 52.5C44.2 51.3 44.2 50 44.2 49.7L44.2 49.1L43.4 49.1L42.7 49.1L42.7 51.9C42.7 54.7 42.7 54.7 42.5 55C42.4 55.4 42 55.7 41.7 55.9L41.4 56L41.4 56.3C41.3 56.7 41.3 56.8 41.1 57C41 57.1 41 57.1 41.3 57.3C41.8 57.5 42.5 58.1 42.7 58.6C43 59.2 43 59.5 43 62.3C43 63.6 43 64.8 42.9 64.8C42.9 65 42.9 65 43.4 65L43.9 65L43.8 64.6ZM47 64.9C47.1 64.9 47.3 64 47.3 63.5L47.3 63.1L47 63.1C46.9 63.1 46.6 63.1 46.3 63.1L45.8 63.1L45.8 63.5C45.8 63.7 45.9 64 45.9 64.2C46 64.5 46 64.7 46 64.8L46 65L46.5 65C46.8 65 47 65 47 64.9ZM50.1 64.5C50 64 50.1 60.1 50.2 59.5C50.2 59.3 50.3 58.9 50.4 58.7C50.5 58.3 50.6 58.2 51 57.9C51.3 57.5 51.5 57.4 51.7 57.3C51.9 57.2 52 57.2 52 57.1C52 57.1 52 57.1 51.9 57C51.8 56.9 51.6 56.6 51.6 56.2L51.6 55.9L51.4 55.9C51 55.8 50.7 55.4 50.5 54.9C50.4 54.6 50.4 54.5 50.4 51.8L50.4 49.1L49.6 49.1L48.9 49.1L48.9 51.9C48.9 55.1 48.9 55 48.4 55.5C48.2 55.7 48.1 55.8 47.9 55.9L47.6 56L47.6 56.3C47.5 56.7 47.5 56.8 47.3 57C47.3 57.1 47.3 57.1 47.4 57.1C48.5 57.5 49.1 58.3 49.3 59.3C49.4 59.7 49.4 60.2 49.4 62.3C49.4 63.6 49.3 64.8 49.3 64.8C49.3 65 49.3 65 49.7 65L50.2 65L50.1 64.5ZM53.4 64.9C53.5 64.8 53.6 64.1 53.6 63.6L53.7 63.1L52.9 63.1L52.2 63.1L52.2 63.4C52.2 63.5 52.2 63.9 52.2 64.2C52.4 65 52.3 65 52.9 64.9C53.2 64.9 53.4 64.9 53.4 64.9ZM73.7 64.1C73.9 64.1 73.9 64 74 63.9C74 63.6 74 63.5 74 63.3C73.9 63 73.7 62.9 73.4 62.9C73 62.9 72.8 63 72.7 63.2C72.6 63.6 72.7 64 72.9 64.1C73.1 64.2 73.5 64.2 73.7 64.1ZM34.5 60.4C34.4 59.5 34.4 59.3 34.1 59.3C34 59.2 33.6 59.2 33.4 59.2C33.4 59.3 33.2 59.4 33.2 59.5C33.1 59.6 33 60.4 33 60.8L33 61L33.8 61L34.5 61L34.5 60.4ZM46.7 61L47.3 61L47.3 60.4C47.2 59.6 47.1 59.4 46.9 59.3C46.6 59.1 46.1 59.2 46 59.5C45.9 59.6 45.8 60.3 45.8 60.7L45.8 61L46 61C46.1 61 46.4 61 46.7 61ZM53.6 60.8C53.6 60.5 53.5 59.6 53.5 59.5C53.5 59.3 53.4 59.3 53.2 59.2C52.8 59.1 52.4 59.2 52.4 59.5C52.3 59.7 52.2 60.2 52.2 60.6L52.2 61L52.9 61L53.6 61L53.6 60.8ZM40.9 60.6C40.9 60.1 40.8 59.5 40.7 59.4C40.5 59.1 39.8 59.1 39.6 59.4C39.5 59.6 39.4 60.4 39.4 60.8L39.4 61L40.1 61L40.9 61L40.9 60.6ZM72.8 59.9C72.2 59.8 71.7 59.5 71.3 59.1C70.7 58.5 70.5 58 70.5 57.1C70.5 56.2 70.8 55.6 71.5 55C72 54.5 72.5 54.4 73.4 54.4C74 54.4 74.1 54.4 74.5 54.5C74.8 54.7 75 54.8 75.3 55.1C75.9 55.7 76.2 56.3 76.2 57.2C76.1 58 75.9 58.7 75.2 59.2C74.9 59.6 74.4 59.8 73.9 59.9C73.4 60 73.2 60 72.8 59.9ZM73.8 57.7C74 57.5 74.1 56.9 73.9 56.7C73.7 56.4 73.1 56.4 72.8 56.6C72.8 56.7 72.7 56.8 72.7 57C72.7 57.5 72.8 57.7 73 57.8C73.2 57.8 73.7 57.8 73.8 57.7ZM34.3 51.5L34.3 49.1L34.1 49.1L33.9 49.1L33.9 51.5L33.9 53.9L34.1 53.9L34.3 53.9L34.3 51.5ZM40.6 51.5L40.6 49.1L40.4 49.1L40.1 49.1L40.1 49.8C40.1 50.1 40.1 51.2 40.1 52.1L40.1 53.9L40.3 53.9L40.6 53.9L40.6 51.5ZM46.8 51.5L46.8 49.1L46.5 49.1L46.3 49.1L46.3 51.5L46.3 53.9L46.5 53.9L46.8 53.9L46.8 51.5ZM52.9 51.5C52.9 48.9 53 49.1 52.6 49.1L52.5 49.1L52.5 51.5L52.5 53.9L52.7 53.9L52.9 53.9L52.9 51.5ZM72.5 53.4C72 53.2 71.8 53.1 71.4 52.7C71 52.3 70.8 52.1 70.7 51.6C70.5 51.2 70.5 50.3 70.7 49.8C70.9 49.1 71.4 48.5 72.2 48.1L72.6 47.9L73.3 47.9C74 47.9 74.1 47.9 74.5 48.1C75 48.3 75.6 48.9 75.8 49.3C76.3 50.2 76.3 51.1 75.9 52C75.5 52.7 74.9 53.2 74.1 53.4C73.7 53.5 72.8 53.5 72.5 53.4ZM73.8 51.3C74 51.2 74.1 50.8 74 50.4C73.9 50.2 73.7 50 73.3 50C72.9 50 72.7 50.2 72.7 50.7C72.7 51.1 72.7 51.2 73 51.3C73.2 51.4 73.6 51.4 73.8 51.3ZM54.2 45L54.2 43L43.4 43L32.7 43L32.7 45L32.7 47L43.4 47L54.2 47L54.2 45ZM68.3 46.2C67.6 46.1 67.1 45.8 66.9 45.2C66.8 45 66.8 44.7 66.8 41.3C66.8 37.9 66.8 37.6 66.9 37.3C67.1 36.9 67.4 36.6 67.8 36.4L68.1 36.3L73.3 36.3L78.5 36.3L78.8 36.4C79.2 36.6 79.5 36.9 79.7 37.3L79.8 37.6L79.8 41.2C79.8 44.8 79.8 44.8 79.7 45.2C79.6 45.7 79.3 46 78.8 46.1L78.4 46.3L73.5 46.3C70.8 46.3 68.5 46.3 68.3 46.2ZM77.7 41.3L77.7 38.4L73.3 38.4L68.9 38.4L68.9 41.2C68.9 42.8 69 44.1 69 44.1C69 44.2 71 44.2 73.4 44.2L77.7 44.2L77.7 41.3ZM50.4 38.8L50.4 36.8L43.7 36.8L37.1 36.8L37.1 38.6C37.1 39.7 37.1 40.6 37.1 40.7L37 40.8L43.7 40.8L50.4 40.8L50.4 38.8ZM50.4 29.7L50.4 28.8L43.7 28.8L37.1 28.8L37.1 29.7L37.1 30.7L43.7 30.7L50.4 30.7L50.4 29.7ZM48.9 26.2L48.9 25.7L43.7 25.7L38.5 25.7L38.5 26.2L38.5 26.6L43.7 26.6L48.9 26.6L48.9 26.2ZM49.8 23.1C50.1 22.8 50.9 22.1 51.6 21.4C52.3 20.8 53.8 19.4 54.9 18.3C56 17.3 56.9 16.4 57 16.3C57.1 16.2 57.3 16 57.3 15.9C57.4 15.7 57.4 15.7 57.5 13.5L57.5 11.3L43.9 11.3L30.2 11.3L30.2 13.2C30.2 15.1 30.3 15.7 30.4 15.9C30.4 16 31.2 16.8 32.1 17.6C33 18.5 34.7 20.1 35.9 21.4L38.2 23.6L43.8 23.6L49.4 23.6L49.8 23.1ZM60.1 9.1C60.2 9 60.2 7.3 60.1 7.2C60.1 7.1 58.2 7.1 43.8 7.1C34.9 7.1 27.6 7.1 27.5 7.2C27.5 7.2 27.4 8.5 27.5 8.8C27.5 9.1 27.5 9.1 27.7 9.1C28 9.2 60.1 9.1 60.1 9.1Z"/></svg>
