<svg xmlns="http://www.w3.org/2000/svg" viewBox="0 0 100 100" fill="none" stroke="#000" stroke-width="2.2" stroke-linecap="round" stroke-linejoin="round">
  <!-- Blíster redibujado el 27/09/2026: misma caja y mismo grosor que el resto
       del juego, con menos detalle (8 alvéolos limpios, sin rayas internas). -->
  <rect x="24" y="6" width="52" height="88" rx="6"/>
  <path d="M50 12v76" stroke-dasharray="3 4"/>
  <g>
    <circle cx="37" cy="23" r="7.5"/><circle cx="63" cy="23" r="7.5"/>
    <circle cx="37" cy="41" r="7.5"/><circle cx="63" cy="41" r="7.5"/>
    <circle cx="37" cy="59" r="7.5"/><circle cx="63" cy="59" r="7.5"/>
    <circle cx="37" cy="77" r="7.5"/><circle cx="63" cy="77" r="7.5"/>
  </g>
  <g stroke-width="1.8">
    <path d="M33.5 20.5a4.5 4.5 0 0 1 4-2"/><path d="M59.5 20.5a4.5 4.5 0 0 1 4-2"/>
    <path d="M33.5 38.5a4.5 4.5 0 0 1 4-2"/><path d="M59.5 38.5a4.5 4.5 0 0 1 4-2"/>
    <path d="M33.5 56.5a4.5 4.5 0 0 1 4-2"/><path d="M59.5 56.5a4.5 4.5 0 0 1 4-2"/>
    <path d="M33.5 74.5a4.5 4.5 0 0 1 4-2"/><path d="M59.5 74.5a4.5 4.5 0 0 1 4-2"/>
  </g>
</svg>
