<svg xmlns="http://www.w3.org/2000/svg" viewBox="0 0 564 549" xmlns:c2pa="http://c2pa.org/manifest"><metadata><c2pa:manifest>AAAWgmp1bWIAAAAeanVtZGMycGEAEQAQgAAAqgA4m3EDYzJwYQAAABZcanVtYgAAAEdqdW1kYzJtYQARABCAAACqADibcQN1cm46YzJwYTo2NjJiM2JkZS03MjJmLTQ4ZmYtOWY3MC01YmFiZWU1YzRiZjgAAAADl2p1bWIAAAApanVtZGMyYXMAEQAQgAAAqgA4m3EDYzJwYS5hc3NlcnRpb25zAAAAALxqdW1iAAAARGp1bWRjYm9yABEAEIAAAKoAOJtxE2MycGEuaW5ncmVkaWVudC52MwAAAAAYYzJzaDBlKl6GvHOSNq4klP/1em0AAABwY2JvcqNpZGM6Zm9ybWF0bWltYWdlL3N2Zyt4bWxqaW5zdGFuY2VJRHgseG1wOmlpZDo4OGUxNThjMC1mOWZiLTQyNzYtOWVmMS0wZTg2ZjI0ZDZlYTRscmVsYXRpb25zaGlwaHBhcmVudE9mAAAB4mp1bWIAAABBanVtZGNib3IAEQAQgAAAqgA4m3ETYzJwYS5hY3Rpb25zLnYyAAAAABhjMnNoOxmaCSkAXDUaddkkA6YnkQAAAZljYm9yomdhY3Rpb25zgqJmYWN0aW9ua2MycGEub3BlbmVkanBhcmFtZXRlcnOha2luZ3JlZGllbnRzgaJjdXJseC1zZWxmI2p1bWJmPWMycGEuYXNzZXJ0aW9ucy9jMnBhLmluZ3JlZGllbnQudjNkaGFzaFggNVveea/q7iIqdA3DdCg6+rkr0z07539OwhzaW3uNL4KkZmFjdGlvbngdY29tLmFudGhyb3BpYy5jbGF1ZGUucHJvdmlkZWRqcGFyYW1ldGVyc6F4H2NvbS5hbnRocm9waWMub3JpZ2luLWNvbmZpZGVuY2VndW5rbm93bmtkZXNjcmlwdGlvbnhmQ2xhdWRlIHByb3ZpZGVkIHRoaXMgZmlsZSBhdCB0aGUgcmVxdWVzdCBvZiBhIHVzZXIgYW5kIG1heSBoYXZlIGNyZWF0ZWQgb3IgbW9kaWZpZWQgdGhlIGZpbGUgY29udGVudHMubXNvZnR3YXJlQWdlbnShZG5hbWVmQ2xhdWRlcmFsbEFjdGlvbnNJbmNsdWRlZPUAAADIanVtYgAAAEBqdW1kY2JvcgARABCAAACqADibcRNjMnBhLmhhc2guZGF0YQAAAAAYYzJzaL60sSJMrioIl6YzqZdO+JIAAACAY2JvcqVjYWxnZnNoYTI1NmNwYWRNAAAAAAAAAAAAAAAAAGRoYXNoWCDmNH0wBpIrukbvsF/149krFNi7JalvldoJ9+lk2kNxHWRuYW1lbmp1bWJmIG1hbmlmZXN0amV4Y2x1c2lvbnOBomVzdGFydBh9Zmxlbmd0aBkeBAAAAj5qdW1iAAAAJ2p1bWRjMmNsABEAEIAAAKoAOJtxA2MycGEuY2xhaW0udjIAAAACD2Nib3KlY2FsZ2ZzaGEyNTZpc2lnbmF0dXJleE1zZWxmI2p1bWJmPS9jMnBhL3VybjpjMnBhOjY2MmIzYmRlLTcyMmYtNDhmZi05ZjcwLTViYWJlZTVjNGJmOC9jMnBhLnNpZ25hdHVyZWppbnN0YW5jZUlEeCx4bXA6aWlkOmM4YzVjYzQ3LWRmMmYtNDkxNS1hNTliLWM1MmJkYTAyN2ZkYnJjcmVhdGVkX2Fzc2VydGlvbnODomN1cmx4LXNlbGYjanVtYmY9YzJwYS5hc3NlcnRpb25zL2MycGEuaW5ncmVkaWVudC52M2RoYXNoWCA1W955r+ruIip0DcN0KDr6uSvTPTvnf07CHNpbe40vgqJjdXJseCpzZWxmI2p1bWJmPWMycGEuYXNzZXJ0aW9ucy9jMnBhLmFjdGlvbnMudjJkaGFzaFggswHPv3hBSNuNawHzyRYIcNwhqyCa1qdsUz+MjClXZUGiY3VybHgpc2VsZiNqdW1iZj1jMnBhLmFzc2VydGlvbnMvYzJwYS5oYXNoLmRhdGFkaGFzaFggueEb6o62H8aALNWT5s+fN1yqO7JOSeFpWZD9hvFCEI90Y2xhaW1fZ2VuZXJhdG9yX2luZm+jZG5hbWVvQW50aHJvcGljIEZpbGVzZ3ZlcnNpb25lMS4wLjBrc3BlY1ZlcnNpb25lMi40LjAAABA4anVtYgAAAChqdW1kYzJjcwARABCAAACqADibcQNjMnBhLnNpZ25hdHVyZQAAABAIY2JvctKEWQISogEmGCFZAgowggIGMIIBjaADAgECAhRA5aAK7sI50L64g/oGQgU9Z1UTADAKBggqhkjOPQQDAzBJMRcwFQYDVQQKEw5BbnRocm9waWMsIFBCQzEuMCwGA1UEAxMlQW50aHJvcGljIENvbnRlbnQgQ3JlZGVudGlhbHMgUm9vdCBDQTAeFw0yNjA4MDcxODQzNTZaFw0yODA4MDYxOTQzNTZaMEQxFzAVBgNVBAoTDkFudGhyb3BpYywgUEJDMSkwJwYDVQQDEyBBbnRocm9waWMgQ2xhdWRlIENvbnRlbnQgU2lnbmluZzBZMBMGByqGSM49AgEGCCqGSM49AwEHA0IABJh6CmvLUBgFFNU0vUKlOVtE6djd17L5SuwX0LemFisBM3dkd/3cyjxFA3Qo5S46fX0/ihY0VZ7mfb9KF703t5OjWDBWMA4GA1UdDwEB/wQEAwIHgDAVBgNVHSUEDjAMBgorBgEEAYPoXgIBMAwGA1UdEwEB/wQCMAAwHwYDVR0jBBgwFoAUzlHiBIFOZFsj+OPEz5o+nMHXXMIwCgYIKoZIzj0EAwMDZwAwZAIwMXMdFJ4BetLLVY7ORuE9noqbbAZOZn/aArXyTwFAZfKrPzxF2vPoJNf1+UCdg1XGAjBwX1zd9WGqYkqmL5SFqw1QySjr1zJfpJM9+1rdDwSPLMOPOjKuiXjoU/pUUeG9RwmhY3BhZFkNngAAAAAAAAAAAAAAAAAAAAAAAAAAAAAAAAAAAAAAAAAAAAAAAAAAAAAAAAAAAAAAAAAAAAAAAAAAAAAAAAAAAAAAAAAAAAAAAAAAAAAAAAAAAAAAAAAAAAAAAAAAAAAAAAAAAAAAAAAAAAAAAAAAAAAAAAAAAAAAAAAAAAAAAAAAAAAAAAAAAAAAAAAAAAAAAAAAAAAAAAAAAAAAAAAAAAAAAAAAAAAAAAAAAAAAAAAAAAAAAAAAAAAAAAAAAAAAAAAAAAAAAAAAAAAAAAAAAAAAAAAAAAAAAAAAAAAAAAAAAAAAAAAAAAAAAAAAAAAAAAAAAAAAAAAAAAAAAAAAAAAAAAAAAAAAAAAAAAAAAAAAAAAAAAAAAAAAAAAAAAAAAAAAAAAAAAAAAAAAAAAAAAAAAAAAAAAAAAAAAAAAAAAAAAAAAAAAAAAAAAAAAAAAAAAAAAAAAAAAAAAAAAAAAAAAAAAAAAAAAAAAAAAAAAAAAAAAAAAAAAAAAAAAAAAAAAAAAAAAAAAAAAAAAAAAAAAAAAAAAAAAAAAAAAAAAAAAAAAAAAAAAAAAAAAAAAAAAAAAAAAAAAAAAAAAAAAAAAAAAAAAAAAAAAAAAAAAAAAAAAAAAAAAAAAAAAAAAAAAAAAAAAAAAAAAAAAAAAAAAAAAAAAAAAAAAAAAAAAAAAAAAAAAAAAAAAAAAAAAAAAAAAAAAAAAAAAAAAAAAAAAAAAAAAAAAAAAAAAAAAAAAAAAAAAAAAAAAAAAAAAAAAAAAAAAAAAAAAAAAAAAAAAAAAAAAAAAAAAAAAAAAAAAAAAAAAAAAAAAAAAAAAAAAAAAAAAAAAAAAAAAAAAAAAAAAAAAAAAAAAAAAAAAAAAAAAAAAAAAAAAAAAAAAAAAAAAAAAAAAAAAAAAAAAAAAAAAAAAAAAAAAAAAAAAAAAAAAAAAAAAAAAAAAAAAAAAAAAAAAAAAAAAAAAAAAAAAAAAAAAAAAAAAAAAAAAAAAAAAAAAAAAAAAAAAAAAAAAAAAAAAAAAAAAAAAAAAAAAAAAAAAAAAAAAAAAAAAAAAAAAAAAAAAAAAAAAAAAAAAAAAAAAAAAAAAAAAAAAAAAAAAAAAAAAAAAAAAAAAAAAAAAAAAAAAAAAAAAAAAAAAAAAAAAAAAAAAAAAAAAAAAAAAAAAAAAAAAAAAAAAAAAAAAAAAAAAAAAAAAAAAAAAAAAAAAAAAAAAAAAAAAAAAAAAAAAAAAAAAAAAAAAAAAAAAAAAAAAAAAAAAAAAAAAAAAAAAAAAAAAAAAAAAAAAAAAAAAAAAAAAAAAAAAAAAAAAAAAAAAAAAAAAAAAAAAAAAAAAAAAAAAAAAAAAAAAAAAAAAAAAAAAAAAAAAAAAAAAAAAAAAAAAAAAAAAAAAAAAAAAAAAAAAAAAAAAAAAAAAAAAAAAAAAAAAAAAAAAAAAAAAAAAAAAAAAAAAAAAAAAAAAAAAAAAAAAAAAAAAAAAAAAAAAAAAAAAAAAAAAAAAAAAAAAAAAAAAAAAAAAAAAAAAAAAAAAAAAAAAAAAAAAAAAAAAAAAAAAAAAAAAAAAAAAAAAAAAAAAAAAAAAAAAAAAAAAAAAAAAAAAAAAAAAAAAAAAAAAAAAAAAAAAAAAAAAAAAAAAAAAAAAAAAAAAAAAAAAAAAAAAAAAAAAAAAAAAAAAAAAAAAAAAAAAAAAAAAAAAAAAAAAAAAAAAAAAAAAAAAAAAAAAAAAAAAAAAAAAAAAAAAAAAAAAAAAAAAAAAAAAAAAAAAAAAAAAAAAAAAAAAAAAAAAAAAAAAAAAAAAAAAAAAAAAAAAAAAAAAAAAAAAAAAAAAAAAAAAAAAAAAAAAAAAAAAAAAAAAAAAAAAAAAAAAAAAAAAAAAAAAAAAAAAAAAAAAAAAAAAAAAAAAAAAAAAAAAAAAAAAAAAAAAAAAAAAAAAAAAAAAAAAAAAAAAAAAAAAAAAAAAAAAAAAAAAAAAAAAAAAAAAAAAAAAAAAAAAAAAAAAAAAAAAAAAAAAAAAAAAAAAAAAAAAAAAAAAAAAAAAAAAAAAAAAAAAAAAAAAAAAAAAAAAAAAAAAAAAAAAAAAAAAAAAAAAAAAAAAAAAAAAAAAAAAAAAAAAAAAAAAAAAAAAAAAAAAAAAAAAAAAAAAAAAAAAAAAAAAAAAAAAAAAAAAAAAAAAAAAAAAAAAAAAAAAAAAAAAAAAAAAAAAAAAAAAAAAAAAAAAAAAAAAAAAAAAAAAAAAAAAAAAAAAAAAAAAAAAAAAAAAAAAAAAAAAAAAAAAAAAAAAAAAAAAAAAAAAAAAAAAAAAAAAAAAAAAAAAAAAAAAAAAAAAAAAAAAAAAAAAAAAAAAAAAAAAAAAAAAAAAAAAAAAAAAAAAAAAAAAAAAAAAAAAAAAAAAAAAAAAAAAAAAAAAAAAAAAAAAAAAAAAAAAAAAAAAAAAAAAAAAAAAAAAAAAAAAAAAAAAAAAAAAAAAAAAAAAAAAAAAAAAAAAAAAAAAAAAAAAAAAAAAAAAAAAAAAAAAAAAAAAAAAAAAAAAAAAAAAAAAAAAAAAAAAAAAAAAAAAAAAAAAAAAAAAAAAAAAAAAAAAAAAAAAAAAAAAAAAAAAAAAAAAAAAAAAAAAAAAAAAAAAAAAAAAAAAAAAAAAAAAAAAAAAAAAAAAAAAAAAAAAAAAAAAAAAAAAAAAAAAAAAAAAAAAAAAAAAAAAAAAAAAAAAAAAAAAAAAAAAAAAAAAAAAAAAAAAAAAAAAAAAAAAAAAAAAAAAAAAAAAAAAAAAAAAAAAAAAAAAAAAAAAAAAAAAAAAAAAAAAAAAAAAAAAAAAAAAAAAAAAAAAAAAAAAAAAAAAAAAAAAAAAAAAAAAAAAAAAAAAAAAAAAAAAAAAAAAAAAAAAAAAAAAAAAAAAAAAAAAAAAAAAAAAAAAAAAAAAAAAAAAAAAAAAAAAAAAAAAAAAAAAAAAAAAAAAAAAAAAAAAAAAAAAAAAAAAAAAAAAAAAAAAAAAAAAAAAAAAAAAAAAAAAAAAAAAAAAAAAAAAAAAAAAAAAAAAAAAAAAAAAAAAAAAAAAAAAAAAAAAAAAAAAAAAAAAAAAAAAAAAAAAAAAAAAAAAAAAAAAAAAAAAAAAAAAAAAAAAAAAAAAAAAAAAAAAAAAAAAAAAAAAAAAAAAAAAAAAAAAAAAAAAAAAAAAAAAAAAAAAAAAAAAAAAAAAAAAAAAAAAAAAAAAAAAAAAAAAAAAAAAAAAAAAAAAAAAAAAAAAAAAAAAAAAAAAAAAAAAAAAAAAAAAAAAAAAAAAAAAAAAAAAAAAAAAAAAAAAAAAAAAAAAAAAAAAAAAAAAAAAAAAAAAAAAAAAAAAAAAAAAAAAAAAAAAAAAAAAAAAAAAAAAAAAAAAAAAAAAAAAAAAAAAAAAAAAAAAAAAAAAAAAAAAAAAAAAAAAAAAAAAAAAAAAAAAAAAAAAAAAAAAAAAAAAAAAAAAAAAAAAAAAAAAAAAAAAAAAAAAAAAAAAAAAAAAAAAAAAAAAAAAAAAAAAAAAAAAAAAAAAAAAAAAAAAAAAAAAAAAAAAAAAAAAAAAAAAAAAAAAAAAAAAAAAAAAAAAAAAAAAAAAAAAAAAAAAAAAAAAAAAAAAAAAAAAAAAAAAAAAAAAAAAAAAAAAAAAAAAAAAAAAAAAAAAAAAAAAAAAAAAAAAAAAAAAAAAAAAAAAAAAAAAAAAAAAAAAAAAAAAAAAAAAAAAAAAAAAAAAAAAAAAAAAAAAAAAAAAAAAAAAAAAAAAAAAAAAAAAAAAAAAAAAAAAAAAAAAAAAAAAAAAAAAAAAAAAAAAAAAAAAAAAAAAAAAAAAAAAAAAAAAAAAAAAAAAAAAAAAAAAAAAAAAAAAAAAAAAAAAAAAAAAAAAAAAAAAAAAAAAAAAAAAAAAAAAAAAAAAAAAAAAAAAAAAAAAAAAAAAAAAAAAAAAAAAAAAAAAAAAAAAAAAAAAAAAAAAAAAAAAAAAAAAAAAAAAAAAAAAAAAAAAAAAAAAAAAAAAAAAAAAAAAAAAAAAAAAAAAAAAAAAAAAAAAAAAAAAAAAAAAAAAAAAAAAAAAAAAAAAAAAAAAAAAAAAAAAAAAAAAAAAAAAAAAAAAAAAAAAAAAAAAAAAAAAAAAAAAAAAAAAAAAAAAAAAAAAAAAAAAAAAAAAAAAAAAAAAAAAAAAAAAAAAAAAAAAAAAAAAAAAAAAAAAAAAAAAAAAAAAAAAAAAAAAAAAAAAAAAAAAAAAAAAAAAAAAAAAAAAAAAAAAAAAAAAAAAAAAAAAAAAAAAAAAAAAAAAAAAAAAAAAAAAAAAAAAAAAAAAAAAAAAAAAAAAAAAAAAAAAAAAAAAAAAAAAAAAAAAAAAAAAAAAAAAAAAAAAAAAAAAAAAAAAAAAAAAAAAAAAAAAAAAAAAAAAAAAAAAAAAAAAAAAAAAAAAAAAAAAAAAAAAAAAAAAAAAAAAAAAAAAAAAAAAAAAAAAAAAAAAAAAAAAAAAAAAAAAAAAAAAAAAAAAAAAAAAAAAAAAAAAAAAAAAAAAAAAAAAAAAAAAAAAAAAAAAAAAAAAAAAAAAAAAAAAAAAAAAAAAAAAAAAAAAAAAAAAAAAAAAAAAAAAAAAAAAAAAAAAAAAAAAAAAAAAAAAAAAAAAAAAAAAAAAAAAAAAAAAAAAAPZYQF6q1n8HcLMvsVcG9/376dvIy0rIfjCtxrcv5QSpiFDmmK1BokuadEcZMz14qNmJesCHsT3gJbeQyODbTCVbUXk=</c2pa:manifest></metadata><path fill-rule="evenodd" d="M525.1 542.8C524.8 542.7 524.8 540.8 524.8 534.4L524.8 526L524.2 525.6L523.6 525.2L405.3 525.2L287.1 525.2L286.9 524.9C286.7 524.2 286.7 522.3 287 522.1C287.1 522.1 303 522 322.3 522C355.5 522 362.8 521.9 362.8 521.5C362.8 521.4 361.2 521.2 359.3 521.1C355.3 520.9 351.8 520.1 349.1 518.8C346.5 517.6 343.3 514.2 341.8 511C340.7 508.7 340.4 506.3 340.4 500.2L340.4 494.6L349.5 494.6L358.7 494.5L359.1 494.9C359.4 495.3 359.5 496.3 359.7 499.6C360 504 360.5 505.9 361.5 507.1C362.2 507.9 363.8 508.8 365.7 509.4C367.2 509.9 368.2 510 370.3 510C372.4 510 373.2 509.9 374.2 509.5C375.7 508.8 377.3 507.5 378.2 506.2C379.7 503.9 380.3 499.4 379.4 496.9C378.6 494.6 375.2 490.9 371.9 488.7C370.9 488 369.9 487.3 369.6 487.2C369.4 487 368.3 486.3 367.2 485.6C366.2 485 362.9 482.8 359.9 480.8C356.9 478.8 354.3 477.1 354.2 477C353.8 476.9 350.6 474.8 349.2 473.7C346 471.4 343.7 467.4 342.6 462C341.9 459 341.9 453.1 342.6 450.4C344.1 444 346.9 439.8 352.1 436.4C355.2 434.3 356.5 433.8 359 433.2C359.6 433.1 360.9 432.8 361.8 432.6C362.9 432.3 365 432.1 369 432.1C375.4 431.9 377.3 432.1 381.2 433.4C381.9 433.6 382.8 433.9 383.2 434C383.7 434.1 384.4 434.4 384.9 434.6C385.3 434.8 386.3 435.3 387.1 435.7C390.6 437.3 393.1 439.5 394.3 441.8C395.5 444.2 395.8 445 396 447C396.2 448 396.4 449 396.4 449.1C396.5 449.2 396.6 451.2 396.8 453.5C396.9 456.4 396.9 457.7 396.7 458C396.5 458.2 394.8 458.3 388 458.2C383.3 458.2 379.5 458 379.4 457.9C379.3 457.8 379.1 456.7 379 455.4C378.9 454.2 378.6 452.2 378.3 451C377.6 447.7 376.7 446.5 374.1 445.6C371.8 444.8 368.7 444.8 366.8 445.6C363.6 446.9 362.5 448 361.5 451C360.5 454.1 361 458.2 362.7 460.8C363.3 461.7 366.1 464 369.2 466.1C370.2 466.7 371.1 467.5 371.3 467.6C371.4 467.8 371.7 468 371.8 468C371.9 468 372.7 468.5 373.5 469C375.3 470.2 378.6 472 379 472C379.3 472 380.2 472.4 382.8 473.6C384.9 474.6 388.2 476.9 390.2 478.9C392.6 481.2 393.5 482.5 395.3 486.1C395.7 486.9 396.5 489.3 396.8 490.4C396.9 491.1 397 494.1 396.9 498.2C396.8 504.1 396.8 505.1 396.3 506.9C395.4 510.1 394.2 512.3 392 514.5C390.2 516.3 388.8 517.3 385 519.2C384.1 519.6 383.2 520 383.1 520C382.9 520 382.3 520.2 381.7 520.5C381 520.8 379.7 521 378.2 521.1C376.8 521.2 375.8 521.4 375.8 521.5C375.8 521.9 380.5 522 400.5 522C420.4 522 424.8 521.9 424.8 521.5C424.8 521.4 423.8 521.2 422.6 521.1C419.6 520.9 416.9 519.7 414.4 517.6C410.2 514.2 408 511.5 406.5 508.4C405.4 506 405.3 505.6 405 504.6C404.9 504.1 404.6 503 404.4 502.2C403.7 499.7 403.2 497.1 403 494.9C402.9 493.6 402.6 492.1 402.5 491.4C402.4 490.7 402.1 487.1 402 483.4C401.7 476.1 401.9 466.8 402.6 463C402.8 461.8 403.1 460.1 403.2 459.2C404.1 454.2 405.1 450.6 406.8 447.1C407.5 445.6 407.6 445.5 409 443.2C410 441.6 413.7 437.9 415.2 436.9C417.4 435.5 417.5 435.4 419.6 434.5C423.2 432.9 427.3 432.2 433.2 432.2C437.7 432.2 442.8 432.9 444.4 433.6C444.9 433.8 445.4 434 445.6 434C446.1 434 448.6 435.2 450.1 436.1C450.7 436.5 451.4 436.8 451.6 437C452.4 437.3 454.5 439 456 440.3C458.5 442.8 459.5 444.9 460.3 449.5C460.9 453.4 460.9 459 460.4 459.5C460.2 459.7 457.8 459.7 452.1 459.7L444.1 459.6L443.8 458.4C443.7 457.7 443.4 455.5 443.2 453.5C443 450.4 442.9 449.7 442.3 448.8C440.8 446.2 437.1 444.5 432.9 444.5C428.8 444.5 426.2 445.8 424.2 449C423.1 450.6 422.2 453.1 421.9 455.2C421.8 455.9 421.6 456.7 421.5 457.1C421.4 457.5 421.1 459.6 420.9 461.6C420.7 463.7 420.4 466.5 420.2 468C420.1 469.6 420 474.6 420.1 482C420.2 491.8 420.3 493.9 420.7 497C421 499 421.5 501.2 421.8 502C422.8 504.7 425.5 508.3 427.4 509.4L428.6 510.1L434 510.1C439.1 510.1 442.5 509.8 443.6 509.2L444 509L444 499C444 493.5 444 489 443.9 489C443.9 488.9 441.6 488.8 438.8 488.8L433.6 488.6L433.6 482.2L433.5 475.9L433.9 475.6C434.2 475.3 437.5 475.2 447.9 475.2C455.4 475.2 461.5 475.3 461.6 475.5C461.7 475.7 461.8 520.8 461.7 520.9C461.7 520.9 458.9 521 455.6 521.1C452.2 521.2 449.5 521.4 449.5 521.5C449.5 521.8 458.7 522 471.6 522C483.8 522 489.2 521.8 489.2 521.5C489.2 521.4 487.8 521.2 485.9 521.1C483.8 521 481.7 520.7 480.1 520.3C476.6 519.5 475.2 518.8 473 517.1C472.1 516.5 469 512.6 469 512.2C469 512 468.8 511.7 468.7 511.5C468.5 511.3 468.1 510.3 467.7 509.4L467.1 507.6L467.1 501.1L467.1 494.6L476.2 494.6C482.1 494.5 485.4 494.6 485.6 494.7C485.8 494.9 486 496.1 486.1 497.9C486.2 499.6 486.4 502 486.7 503.4L487.1 505.8L488.5 507.3C489.7 508.5 490.1 508.7 492 509.3C493.8 509.9 494.6 510 496.9 510C499.4 510 499.8 509.9 501 509.4C502.8 508.4 504.6 506.7 505.4 505.1L506.1 503.6L506.1 500.1L506.1 496.6L505.5 495.8C503.1 492.2 500.8 490.1 495.5 486.7C494.3 486 493 485.1 492.7 484.9C491.1 483.8 490.6 483.5 490 483.2C489.6 483 487.1 481.3 484.3 479.4C481.5 477.5 479.2 476 479.1 476C479.1 476 478.2 475.4 477.1 474.7C474.9 473.2 472.8 471.2 472.2 470C471.9 469.5 471.6 469 471.5 468.8C470.2 466.7 469.1 462.7 468.7 459C468.3 454.4 469.1 449.1 470.9 444.9C472.6 441 478.7 435.5 483.2 433.9C483.9 433.6 484.9 433.3 485.5 433.2C486.1 433.1 487.4 432.8 488.2 432.6C489.4 432.3 491.5 432.1 495.5 432.1C501.9 431.9 503.8 432.1 507.8 433.4C508.4 433.6 509.3 433.9 509.7 434C510.6 434.2 510.8 434.3 513.8 435.8C516.6 437.2 516.7 437.2 518.6 439.1C519.9 440.4 520.7 441.4 521.2 442.5C521.6 443.4 522 444.3 522 444.6C522 444.8 522.2 445.4 522.4 446C522.6 446.7 522.9 449.1 523.1 452.2L523.4 457.4L522.9 457.8L522.4 458.2L514.5 458.2C510.2 458.2 506.5 458.1 506.3 458C505.9 457.8 505.8 457.1 505.1 452.6C504.3 447 502.6 445.3 497.3 445.1C495.1 445 494.6 445 493.3 445.5C491.8 446.2 490.4 447 489.7 447.7C489 448.5 488.1 450.8 487.7 452.7C487.2 455.8 488.1 459.5 489.7 461.4C490.5 462.3 492.6 464 496.6 466.7C497.6 467.3 498.7 468.1 499.1 468.4C501.6 470.1 504.7 471.8 505.8 472.1C507.1 472.4 510.3 474 512.5 475.4C513.8 476.3 515.7 477.9 517.2 479.5C519.4 481.7 520.1 482.5 520.9 484.3C522.4 487.3 522.7 488.1 523.2 490.8C523.6 492.5 523.7 494.1 523.7 496.6C523.7 499.9 523.7 500.8 523 505.6C522.4 510.1 520 514 516.1 516.6C514.7 517.6 510 520 509.6 520C509.4 520 508.8 520.2 508.2 520.5C507.5 520.8 506.2 521 504.7 521.1C503.3 521.2 502.2 521.4 502.2 521.5C502.2 521.6 503.1 521.7 504.2 521.8C506.5 522 523.2 522 523.9 521.8C524.2 521.8 524.5 521.5 524.6 521.3C524.7 521.1 524.8 497.1 524.8 468.1L524.7 415.3L525.1 415.2C525.9 414.9 527.7 415 527.8 415.3C527.8 415.5 527.8 439.5 527.8 468.6C527.9 515.3 527.9 521.5 528.2 521.8C528.5 521.9 534.2 522 543.1 522C551 522 557.6 522 557.7 522.1C558 522.3 558.1 524.5 557.8 524.9C557.6 525.2 554.7 525.3 542.9 525.3L528.2 525.2L528 525.9C527.8 526.4 527.7 529.5 527.8 534.5C527.8 538.9 527.7 542.6 527.6 542.7C527.5 543 525.7 543.1 525.1 542.8ZM434.5 521.5C434.5 521.4 433.9 521.2 433.1 521.2C432.4 521.2 431.8 521.4 431.8 521.5C431.8 521.6 432.4 521.8 433.1 521.8C433.9 521.8 434.5 521.6 434.5 521.5ZM167.4 510C166.1 509.8 165.3 509.5 163.5 508.6C163.2 508.4 162.5 508.1 162 507.8C161.5 507.6 160.5 506.8 159.6 506C158.2 504.6 157.7 503.8 156.6 501.4C156.1 500.1 155.9 496.4 156.2 494.5C156.6 492.5 157.4 489.7 157.7 489.4C157.9 489.3 158 489 158 488.8C158 488.5 159.1 486 159.5 485.2C159.6 485 159.9 484.6 160 484.2C160.4 483.4 160.4 483.3 161.1 482.1C161.5 481.6 161.8 480.9 162 480.6C162.2 480.1 164.3 476.8 165.6 475C167.1 472.8 170.1 469.2 171.8 467.6C173.7 465.8 176.2 464 176.8 464C177 464 177.4 463.8 177.8 463.6C178.3 463.2 178.9 463.1 181.6 463.1C184.5 463.1 185 463.2 186.4 463.7C187.2 464.1 188.1 464.5 188.3 464.7C188.5 464.9 188.7 465 188.8 465C189.2 465 191.7 467 192.6 468C193.1 468.6 193.9 469.8 194.3 470.7L195 472.3L195 475.5C195.1 477.2 195 478.9 194.9 479.3C194.2 481.7 193.4 484 193.2 484.1C193.1 484.2 193 484.5 193 484.7C193 485.4 190.7 489.9 188.1 494.2C187.8 494.7 185.8 497.7 184.7 499.3C183.1 501.6 179.9 505.1 177.9 506.7C175.2 508.8 172.9 509.9 170.6 510.1C169.7 510.1 168.2 510.1 167.4 510ZM170.1 500.3C171.8 499.5 172.8 498.7 174.5 496.6C175.8 495 180.2 488.6 181.1 486.9C181.3 486.5 181.8 485.6 182.2 485C182.5 484.4 183.1 483.2 183.5 482.4C184 481.6 184.4 480.7 184.5 480.5C184.9 479.8 185.7 477.2 185.9 476.2C186.2 474.3 184.4 472 182.5 472C181 472 178.9 473.6 176.7 476.4C175.3 478.1 171 484.4 171 484.7C171 484.8 170.6 485.4 170.2 486.1C169.4 487.2 168.1 489.6 166.5 493C166.1 493.8 165.9 494.8 165.8 496.2C165.6 498.8 165.9 499.5 167.3 500.2C168.6 500.9 168.7 500.9 170.1 500.3ZM134.4 492.2C133.7 492 132.7 491.6 132.3 491.3C128.3 488.9 127.2 487.7 125.7 484.9C124.9 483.3 124.6 480.3 125 477.2C125.2 475 125.6 474 127.4 470.4C129.2 466.9 130.5 464.8 133.5 460.8C139.9 452.4 145.5 447.7 150 447C152.5 446.6 155.5 446.9 157.3 447.7C165.4 451.5 167.7 457.8 164.2 466.5C163.9 467.3 163.5 468 163.4 468.2C163.3 468.4 162.8 469.3 162.3 470.2C161 472.8 158.5 476.5 155.7 480.1C151.9 484.8 147.6 488.8 143.4 491.3C141.2 492.7 137.2 493.1 134.4 492.2ZM139.7 482.4C141.9 481.3 147.2 475.4 150.9 470.1C151.5 469.2 152.5 467.8 152.9 467.2C153.4 466.5 154.3 465 154.9 463.8L156.1 461.6L156.1 459.6L156.1 457.5L155.2 456.8C154.5 456.2 154.1 456 153.1 456C152.1 456 151.6 456.2 150.4 457C148.2 458.4 144.9 461.9 141.1 466.9C138.8 470.1 136.6 473.4 135.7 475.1C135 476.5 134 479.3 134 479.9C134 480.5 135 482.2 135.6 482.6C136.4 483.2 138.3 483.1 139.7 482.4ZM105.4 471.7C102.9 471.1 100.9 469.9 98.8 467.9C97.7 466.8 96.4 465.1 95.5 463.4C94.9 462.1 94.6 459.3 95 456.9C95.2 455.1 95.4 454.4 96.6 452C98.8 447.1 105.9 439.2 113.1 433.4C114.7 432.1 116 431.2 117.6 430.4C118.3 430 118.9 429.7 119.1 429.5C119.4 429.3 121.4 428.6 122.9 428.2C124.2 427.9 127.9 428.1 129 428.6C130.4 429.2 131.1 429.5 131.9 429.9C132.9 430.5 137 434.6 137 435.1C137 435.3 137.2 435.6 137.3 435.7C137.8 436.1 138.8 440.4 138.7 441.3C138.2 443.7 137.7 445.9 137.4 446.5C137.2 446.8 136.9 447.4 136.8 447.8C136.6 448.1 136.4 448.6 136.2 448.9C136 449.1 135.5 449.9 135.1 450.6C132.3 455.1 125.2 462.6 119.9 466.6C119.7 466.7 119.3 467 118.8 467.4C118.4 467.7 118 468 117.9 468C117.8 468 117.2 468.4 116.6 468.8C115 469.9 113.6 470.6 111.2 471.4C109.2 472 106.9 472.2 105.4 471.7ZM110.4 461.4C113 460 116.3 457.2 121.1 452.2C124.8 448.5 127.4 445.3 128.4 443.4C129.2 441.6 129.3 439.6 128.4 438.6C128.1 438.2 127.3 437.7 126.8 437.5C125.9 437.2 125.6 437.2 124.5 437.6C122.9 438.2 121.6 439.1 118.1 441.9C114.3 445 107.4 452.4 105.7 455C105 456.1 104.3 458.3 104.3 459.2C104.2 460.2 105.2 461.6 106.3 461.9C107.4 462.3 109.1 462.1 110.4 461.4ZM78.1 446.8C75.8 444.2 74.8 442.9 69.8 436.9C68.9 435.8 66.7 433.3 65.1 431.4C63.4 429.4 62 427.6 62 427.4C62 426.9 62.6 426.4 64.4 425.5C65.2 425.1 66 424.6 66.1 424.5C66.3 424.4 66.7 424.2 67.1 424.1C67.5 424 68.3 423.7 68.7 423.5C69.2 423.2 69.8 423 70.1 423C70.3 423 70.9 422.8 71.4 422.6C73 422 78.9 421.4 82.8 421.6C84.6 421.7 88.5 421.8 91.3 421.9L96.5 422.1L98.2 421.5C99.1 421.2 100.3 420.7 100.7 420.3C102 419.5 103.1 418 103.5 416.6C103.8 415.7 103.8 415.3 103.5 414.5C103.1 413.3 101.9 412.1 101 411.8C99.9 411.6 97.7 411.9 96.4 412.6C95.7 413 95 413.4 94.9 413.5C94.3 414.1 93.7 413.7 92.1 411.2C89.7 407.7 88.8 406.2 88.8 405.9C88.8 405.7 89.3 405.3 89.9 404.9C90.6 404.5 91.3 404 91.6 403.8C91.9 403.6 92.4 403.4 92.8 403.2C93.1 403.1 93.7 402.8 94 402.6C94.8 402.2 98.7 401.2 99.7 401.3C100.8 401.3 103.8 402.1 104.9 402.8C106.6 403.8 108.2 405.3 110 407.5C112.9 411.2 113.8 413.2 113.8 416.2C113.8 418 113 421 112.3 421.8C112.2 422 112 422.3 112 422.4C112 422.8 110.1 425.2 108.9 426.3C107.5 427.6 104.8 429.4 103.1 430.1C102.3 430.5 100.6 431 99.4 431.2C96.7 431.9 91.8 431.9 88.1 431.4C84.8 430.9 80 430.9 79.8 431.4C79.8 431.6 80.4 432.6 81.5 433.9C82.5 435.1 84 436.8 84.8 437.7C85.5 438.7 86.8 440.2 87.6 441.1C88.4 441.9 89 442.8 89 443C89 443.4 88 444.3 84.2 447.4C82.9 448.4 81.8 449.4 81.8 449.5C81.7 449.6 81.4 449.8 81.1 449.8C80.7 449.8 79.9 449 78.1 446.8ZM55.1 418.3C54.5 417.6 53.5 416.1 52.7 415C51.9 413.8 50.7 412.1 50 411.1C49.3 410.2 48.4 408.8 48 408.2C47.5 407.5 46.5 406 45.6 404.9C44.8 403.7 43.6 402 43 401.1C41.5 398.9 40.1 397 39.5 396.2C39.2 395.8 39 395.4 39.1 395.2C39.6 394.5 44.8 392.5 48.6 391.6C51.2 391 58.3 391 61.5 391.6C62.7 391.8 64.3 392 65.2 392.1C66 392.2 67.5 392.4 68.4 392.6C69.4 392.8 71.4 393 73 393C75.4 393 76.1 392.9 77.3 392.4C78.1 392.1 79.2 391.4 79.8 391C80.9 390 82 388 82 386.8C82 385.1 79.8 383 78 383C77 383 74.2 383.9 73.3 384.6C73 384.8 72.6 384.9 72.4 384.8C72.2 384.8 71.6 383.8 70.9 382.6C70.3 381.4 69.5 379.9 69.1 379.2C68.8 378.6 68.3 377.8 68.1 377.3L67.6 376.5L68.4 375.9C68.8 375.5 69.2 375.3 69.4 375.3C69.5 375.3 70 375 70.6 374.8C71.7 374.3 73.3 373.6 74.7 373.2C75.2 373.1 76.8 373 78.5 373.1C81 373.2 81.5 373.3 82.8 373.9C85.3 375.2 88.8 379.1 90.4 382.5C91.7 385.2 91.9 385.8 91.9 388C91.9 390.2 91.7 391 90.3 393.6C88.3 397.6 83.6 401 78.4 402.2C76.5 402.7 75.7 402.8 72.7 402.7C69.1 402.6 67.3 402.3 63.5 401.5C62.3 401.2 60.4 401 59.1 400.9C57.2 400.9 56.9 400.9 56.8 401.3C56.8 401.6 57 402.1 57.3 402.4C57.7 403.1 58.6 404.2 61 407.8C61.5 408.5 62.6 410 63.4 411.2C64.3 412.3 64.9 413.4 64.9 413.6C64.8 413.8 63.9 414.5 62.8 415.2C61.7 415.9 59.9 417.2 58.7 418C57.5 418.8 56.4 419.5 56.3 419.5C56.1 419.5 55.6 418.9 55.1 418.3ZM259.9 404.8C259.2 404.8 257.2 404.6 255.5 404.4C253.8 404.2 251.5 404 250.5 403.9C249.5 403.8 247.9 403.6 247 403.4C246.1 403.2 244.8 403 244.1 402.9C242.7 402.7 239.9 402.2 237.6 401.6C236.8 401.4 235.4 401 234.5 400.9C233.6 400.7 232.1 400.3 231.1 400C230.2 399.7 228.7 399.3 227.9 399.1C227.1 398.9 226 398.6 225.6 398.4C225.2 398.2 224.5 398 224 397.9C223.5 397.8 223 397.6 222.9 397.5C222.7 397.4 222.1 397.1 221.4 397C220.7 396.8 219.9 396.5 219.6 396.3C219.4 396.2 219 396 218.8 396C218.5 396 218 395.8 217.6 395.6C217.2 395.4 216.3 395 215.7 394.8C215.1 394.6 214.5 394.4 214.4 394.2C214.3 394.1 214 394 213.8 394C213.6 394 212.5 393.6 211.4 393C210.3 392.5 209.1 392 208.7 391.9C208.3 391.8 207.9 391.6 207.7 391.4C207.6 391.2 207.1 391 206.8 390.9C206.4 390.8 205.9 390.6 205.8 390.4C205.6 390.2 205.1 390 204.7 389.9C204.3 389.8 203.9 389.6 203.9 389.5C203.8 389.4 202.9 388.9 201.9 388.4C200.9 387.9 199.7 387.2 199.1 386.9C198.6 386.6 197.8 386.1 197.4 385.9C196.6 385.5 196.4 385.4 194.2 384C192.5 382.9 192.3 382.7 191.1 382.1C190.6 381.7 189.5 381 188.8 380.5C188 379.9 187.1 379.3 186.8 379.1C184.6 377.6 179.5 373.7 176.9 371.4C173.2 368.2 172.4 367.5 169.5 364.7C164.4 359.6 158.1 352.5 154.6 347.6C152 343.9 146.7 335.8 145.9 334.2C145.8 334 145.2 333 144.6 331.9C143.4 329.6 140.6 324 139.8 322.2C139.5 321.6 139 320.5 138.7 319.7C138.3 318.9 138 318.2 138 318C138 317.9 137.8 317.3 137.5 316.8C137.2 316.3 137 315.7 137 315.5C137 315.4 136.8 314.9 136.6 314.5C136.2 313.8 135.6 312.2 135.2 310.6C135 310.1 134.7 309.1 134.5 308.5C134.2 307.9 133.9 307 133.8 306.5C133.3 305.2 132.6 302.6 131.7 299C131.3 297.3 130.8 295.3 130.6 294.5C130.4 293.7 130.1 292.5 130 291.8C129.9 291 129.6 289.4 129.4 288.2C128.7 284.1 128.2 280.6 128 277.6C127.2 266.1 127.2 264.3 127.5 259.2C128.1 248.1 128.3 246.6 129.4 240.5C129.6 239.3 129.9 237.8 130 237C130.1 236.2 130.4 235 130.6 234.2C131.1 232.4 131.8 229.6 132 228.1C132.2 227.5 132.4 226.6 132.6 226.3C132.8 225.9 133 225.1 133.1 224.6C133.2 224 133.4 223.1 133.6 222.7C134 221.7 134.6 219.9 135.1 218.2C135.7 216.3 136.2 214.9 136.6 214.2C136.8 213.8 137 213.4 137 213.2C137 213 137.2 212.4 137.5 211.9C137.8 211.4 138 210.9 138 210.7C138 210.6 138.3 209.8 138.6 209C140.7 204.7 142.3 201.1 142.8 200.5C142.9 200.3 143.1 199.8 143.2 199.5C143.4 199.2 143.6 198.7 143.7 198.5C143.9 198.3 144.8 196.7 145.8 195C148 191 147.8 191.4 150.2 187.6C152.2 184.6 158.1 176.6 159.2 175.4C159.4 175.1 160.5 173.8 161.6 172.5C163.9 169.8 172.6 161 175 159C175.9 158.2 176.8 157.5 177 157.3C177.8 156.5 184.4 151.3 185.8 150.4C186.5 149.9 188.1 148.8 189.2 148C190.4 147.2 191.8 146.3 192.2 146C192.7 145.7 193.4 145.3 193.8 145.1C198.4 142 209.6 136.3 214.4 134.5C215.2 134.2 216.3 133.7 216.9 133.5C217.5 133.2 218.1 133 218.3 133C218.5 133 218.9 132.8 219.2 132.6C219.4 132.4 220.1 132.2 220.7 132C221.2 131.9 222.2 131.6 222.9 131.3C226.1 130.2 226.7 130 228.5 129.5C229.5 129.2 231.1 128.8 232 128.5C232.9 128.2 233.9 128 234.2 128C234.5 128 235 127.9 235.4 127.7C236.2 127.4 240.2 126.6 242.4 126.2C243.2 126.1 244.7 125.8 245.6 125.6C246.6 125.4 248.6 125.1 250 125C251.4 124.9 253.2 124.6 254 124.5C257.8 123.7 279.5 123.8 283.8 124.6C284.9 124.8 286.9 125 288.1 125.1C289.3 125.2 290.6 125.4 290.9 125.5C291.3 125.7 292.5 125.9 293.6 126C294.7 126.2 296.2 126.4 297 126.6C297.8 126.8 299.5 127.2 300.9 127.5C303.3 128 305.1 128.5 308.4 129.5C309.2 129.7 310.3 130 310.8 130.1C311.2 130.2 311.7 130.4 311.9 130.5C312 130.6 312.7 130.9 313.4 131C314.1 131.2 314.9 131.5 315.2 131.7C315.6 131.8 316 132 316.2 132C316.4 132 317.6 132.4 318.9 133C320.3 133.5 321.5 134 321.6 134C321.7 134 322.4 134.3 323.2 134.7C324.8 135.4 326.1 136 327.9 136.8C328.6 137.1 329.3 137.4 329.5 137.5C329.7 137.6 330.2 137.9 330.5 138C330.8 138.1 331.3 138.4 331.5 138.5C331.7 138.6 332.2 138.9 332.5 139C332.8 139.1 333.3 139.4 333.5 139.5C333.7 139.6 334.7 140.1 335.7 140.7C337.6 141.6 338.4 142.1 340 143.1C340.6 143.4 341.6 144 342.4 144.5C346.5 146.9 355 152.9 358 155.5C358.8 156.2 360.3 157.5 361.5 158.5C362.7 159.5 364.6 161.3 365.8 162.4L368 164.6L318.4 214.3C291.2 241.6 268.8 264 268.6 264C268.5 264 258.7 254.3 246.9 242.5C234.8 230.4 225.2 221 224.9 221C224.7 221 224.5 221.2 224.4 221.6C224.3 222 223.8 276.9 223.8 286.6L223.8 287.5L236 299.7C242.8 306.4 250.3 313.8 252.8 316.2C255.2 318.7 259.5 323 262.4 325.8C266.5 329.8 267.8 331 268.1 330.8C268.4 330.6 304.9 294.6 326.9 272.6C367.1 232.6 395.6 204.4 395.9 204.4C396.4 204.4 396.5 204.5 397.2 206.2C397.5 206.9 398 208 398.3 208.8C398.7 209.6 399 210.3 399 210.4C399 210.5 399.2 211.1 399.5 211.6C399.8 212.2 400 212.8 400 213C400 213.3 400.1 213.5 400.2 213.6C400.4 213.7 400.7 214.3 400.9 214.9C401.4 216.7 402.2 219.1 402.5 219.6C402.6 219.9 403 221.1 403.4 222.4C403.7 223.6 404.1 225 404.3 225.4C404.4 225.8 404.7 226.8 404.9 227.5C405 228.3 405.3 229.3 405.5 229.8C405.9 231 406.7 234.7 407.6 239.8C408.5 244.6 408.6 245.4 409.4 253.9C409.9 258.8 409.9 269.9 409.4 274.7C408.6 282.2 408.5 283.2 408.3 285C408.1 286 407.8 288 407.5 289.4C407.2 290.8 406.9 292.5 406.8 293.2C406.1 296.8 404.7 302.2 403.1 307C402.6 308.4 402.1 310.1 401.9 310.8C401.3 312.6 400.8 314.1 400.4 314.8C400.2 315.2 400 315.6 400 315.8C400 316 399.8 316.6 399.5 317.1C399.2 317.7 399 318.2 399 318.3C399 318.4 398.7 319.2 398.3 320C398 320.7 397.5 321.9 397.2 322.5C396.6 323.8 394.6 328 394.2 328.5C394.1 328.7 393.9 329.2 393.8 329.5C393.6 329.8 393.4 330.3 393.3 330.5C393.1 330.7 392.2 332.3 391.2 334C389 338 389.3 337.5 386.3 342C383.7 345.8 383 346.9 380.1 350.7C375.7 356.5 367.7 365 361.9 370C358 373.3 357.4 373.8 354.5 376C353.1 377.1 351.6 378.2 351.2 378.5C350.2 379.2 343.6 383.7 342.9 384C342.3 384.3 336.5 387.7 335.5 388.2C334.8 388.6 328.7 391.7 327.4 392.3C326.7 392.6 325.5 393.1 324.8 393.4C322.7 394.4 322.1 394.6 320 395.4C319 395.8 317.8 396.2 317.4 396.4C316.6 396.7 315 397.3 313 397.9C312.4 398.1 311.4 398.4 310.8 398.6C310.1 398.8 308.8 399.2 307.8 399.5C306.7 399.8 305.1 400.2 304.2 400.5C303.4 400.7 302.1 401.1 301.4 401.2C300.7 401.3 299.6 401.6 298.9 401.7C294.1 402.8 288.7 403.7 285.1 404C283.5 404.2 281.4 404.4 280.5 404.5C278.9 404.8 262.4 405 259.9 404.8ZM473.1 393.7C473.1 393.5 473 361.6 472.9 322.9C472.9 271 472.8 251.8 472.5 250.2C472.4 249.1 472.2 246.6 472 244.6C471.8 241.4 471.4 238.1 470.7 233.6C470.6 232.7 470.3 230.9 470.1 229.8C470 228.6 469.6 226.7 469.4 225.5C468.7 221.8 468 218.7 467.7 217.5C467.6 216.9 467.3 215.8 467.1 215C466.9 214.2 466.5 212.6 466.1 211.2C465.8 209.9 465.3 208.3 465.1 207.5C464.9 206.7 464.6 205.7 464.4 205.1C464.2 204.6 464 203.9 464 203.7C464 203.4 463.8 202.8 463.6 202.4C463.4 202 463.2 201.2 463 200.6C462.7 199.5 462.1 197.4 461.6 196.4C461.4 196 461.2 195.3 461.1 195C460.9 194.1 460 191.8 459.5 190.6C459.2 190 459 189.4 459 189.3C459 189.1 458.8 188.6 458.5 188.1C458.2 187.6 458 187 458 186.8C458 186.6 457.8 186.1 457.5 185.6C457.2 185.1 457 184.5 457 184.3C457 184.2 456.8 183.7 456.6 183.3C456.4 182.9 456 182.1 455.7 181.4C454.7 179 454 177.6 451.3 172.2C448.1 165.7 448.4 166.2 445.7 161.7C444.6 159.6 443.5 157.7 443.2 157.3C443 156.9 442.4 155.9 441.9 155.1C441.4 154.3 440.7 153.2 440.4 152.8C438.8 150.3 438.4 149.7 437.1 147.9C433.9 143.2 433.1 142.2 429.7 137.7C428.5 136.1 427.3 134.6 427 134.2C426.6 133.9 426 133.2 425.6 132.6C425.2 132.1 423.1 129.6 420.9 127.1C416.2 121.9 409.6 115.1 404.6 110.7C402.7 109 400.9 107.4 400.6 107.2C399.7 106.3 390.6 99.1 389.7 98.4C389.2 98.1 388.4 97.5 387.8 97.1C387.3 96.7 385.4 95.4 383.7 94.2C382 93 380.2 91.8 379.8 91.5C378.5 90.6 374.6 88.1 374 87.8C373.6 87.5 372.1 86.7 370.7 85.9C367.9 84.2 366.3 83.3 364.1 82.1C362.2 81.1 354 77 352.4 76.3C350.6 75.4 349.1 74.8 347.8 74.2C347.2 73.9 346.3 73.6 346 73.4C345.6 73.2 345.2 73 345 73C344.8 73 344.2 72.8 343.7 72.5C340.9 71.3 340.2 71 339.9 71C339.8 71 339.2 70.8 338.7 70.5C338.3 70.3 337.5 70 337 69.9C336.5 69.8 336 69.6 335.8 69.5C335.7 69.3 335 69.1 334.3 68.9C333 68.5 331.1 67.9 329.8 67.4C329.3 67.2 328.1 66.8 327.1 66.5C326.2 66.3 324.8 65.8 324.1 65.6C323.4 65.4 322.3 65.1 321.5 64.9C319.8 64.5 317.6 63.9 315.9 63.4C313.5 62.7 311.1 62.2 309.7 62C309 61.9 308 61.6 307.6 61.5C307.2 61.4 306.1 61.1 305 61C304 60.8 302.6 60.6 301.9 60.4C301.2 60.2 300.3 60 299.8 60C299.3 60 298.1 59.8 297.1 59.6C296.2 59.4 293.8 59.1 291.8 58.9C289.8 58.7 288.1 58.4 288 58.4C287.8 58.3 281.3 57.8 273.1 57.2C268.6 57 261.6 57 257.1 57.2C248.9 57.8 242.4 58.3 242.3 58.4C242.2 58.4 240.5 58.7 238.5 58.9C236.5 59.1 234.1 59.4 233.1 59.6C232.2 59.8 231 60 230.5 60C230 60 229 60.2 228.4 60.4C227.7 60.6 226.5 60.8 225.8 60.9C225 61 223.5 61.3 222.5 61.5C221.5 61.8 220.4 62 220.2 62C219.9 62 218.9 62.2 217.9 62.5C215.4 63.2 214.1 63.5 212.5 63.9C210.2 64.4 202.5 66.7 200.5 67.4C199.2 67.9 197.3 68.5 196 68.9C195.4 69.1 194.5 69.4 194.1 69.6C193.7 69.8 193.3 70 193.1 70C192.8 70 190.5 70.9 189.1 71.5C188.5 71.8 187.9 72 187.8 72C187.6 72 187 72.2 186.3 72.5C185.7 72.8 184.8 73.2 184.4 73.4C181.2 74.8 176.3 77 175.8 77.3C175.5 77.4 175.1 77.6 174.8 77.8C173.8 78.2 169.8 80.2 167.6 81.4C166.5 82 165.4 82.6 165.1 82.7C164.6 82.9 160.8 85.2 157.8 86.9C157.3 87.2 156.4 87.7 155.9 88.1C154.4 88.9 154.4 89 150.1 91.8C143.4 96.4 140.8 98.2 137.5 100.9C136.9 101.4 135.6 102.4 134.7 103.1C129.4 107.3 125 111.2 118.1 118.1C111.6 124.7 110.6 125.7 105.9 131.4C105.2 132.2 104.4 133.1 104 133.5C103.7 133.8 103.3 134.4 103 134.8C102.8 135.1 101.6 136.7 100.3 138.4C98.9 140.1 97.4 142.1 96.9 142.8C94 146.8 92.4 149.2 90.9 151.5C90.4 152.4 89.5 153.7 89 154.5C88.5 155.3 88 156.2 87.8 156.5C87.2 157.5 85.4 160.5 84.8 161.5C84.5 162 84.1 162.7 83.9 163.1C83.7 163.5 83 164.8 82.4 165.9C81.3 167.9 77.4 175.6 76.4 177.9C75.7 179.3 74.8 181.3 74.4 182.4C74.2 182.8 73.8 183.6 73.5 184.2C73.2 184.9 73 185.5 73 185.6C73 185.7 72.8 186.3 72.5 186.9C71.8 188.4 71 190.6 71 190.9C71 191 70.8 191.5 70.5 192C70.3 192.5 70 193.3 69.9 193.7C69.8 194.2 69.6 194.8 69.5 195C69.2 195.4 68.4 197.7 67.9 199.5C67.7 200.1 67.4 201 67.3 201.4C66.7 202.9 66.2 204.7 66 205.7C65.9 206.2 65.6 207.1 65.4 207.6C65.2 208.1 65 208.8 65 209C65 209.3 64.8 210 64.6 210.7C64.4 211.3 64 212.6 63.9 213.4C63.7 214.2 63.4 215.3 63.3 215.9C62.7 218.1 62.2 220.5 61.9 222.3C61.7 223.4 61.5 224.3 61.4 224.5C61.3 224.6 61.1 225.8 60.9 227.2C60.7 228.5 60.4 230.3 60.3 231.1C59.4 236.2 59.2 238.2 59 240.5C58.9 241.9 58.6 244.6 58.4 246.4C58.2 248.2 58 251.5 57.9 253.7C57.8 256.9 57.7 257.9 57.5 258C56.9 258.4 6.7 258.3 6.3 258C6 257.6 6.1 254.7 6.6 246.8C7.7 231.6 9.5 219.1 12.4 206.8C12.6 205.9 12.9 204.6 13 203.9C13.1 203.2 13.4 202.1 13.6 201.5C13.8 200.9 14 200.2 14 200C14 199.7 14.2 199 14.4 198.3C14.6 197.7 15 196.5 15.1 195.8C15.5 194.1 16.4 191.2 16.7 190.1C17 189.4 17.4 188.1 18.1 185.8C18.3 185.1 18.6 184 18.9 183.2C19.1 182.5 19.4 181.7 19.5 181.4C19.8 180.8 20.7 178.3 21 177C21.2 176.5 21.4 175.8 21.6 175.4C22 174.4 22.9 172.1 23.1 171.2C23.2 170.9 23.5 170.4 23.7 170.1C23.8 169.9 24 169.5 24 169.2C24 169 24.2 168.4 24.5 167.9C24.8 167.3 25 166.8 25 166.7C25 166.5 25.2 166 25.5 165.4C25.7 164.8 26.3 163.6 26.6 162.8C27.4 160.8 28 159.6 29.2 157C29.7 156 30.3 154.5 30.7 153.8C31 153 31.4 152.2 31.5 152C31.6 151.8 31.9 151.3 32 151C32.1 150.7 32.4 150.2 32.5 150C32.6 149.8 32.9 149.3 33 149C33.1 148.7 33.4 148.2 33.5 148C33.6 147.8 33.9 147.3 34 147C34.1 146.7 34.4 146.2 34.5 146C34.6 145.8 35.1 144.8 35.6 143.9C36.1 142.9 36.8 141.7 37.1 141.1C37.4 140.6 38 139.4 38.5 138.5C40.7 134.5 43.7 129.5 46.4 125.4C47.2 124.1 48 122.9 48.1 122.7C48.6 121.9 53.3 115.1 53.8 114.4C54.1 114 55.7 111.9 57.2 109.8C60 106 65.5 99 66.3 98.2C66.5 98 67.5 96.9 68.5 95.6C74.8 88.1 86.9 76 95.8 68.4C100.4 64.5 109.4 57.3 111.5 56C111.8 55.7 112.8 55 113.6 54.4C116.1 52.6 126.7 45.5 129.2 44.1C129.7 43.7 130.4 43.3 130.8 43.1C131.6 42.5 139.2 38.2 139.8 37.9C140 37.8 140.6 37.5 141.1 37.1C141.7 36.8 143.4 35.9 144.9 35.1C146.4 34.3 147.8 33.6 148 33.5C148.2 33.4 148.7 33.1 149 33C149.3 32.9 149.8 32.6 150 32.5C150.2 32.4 151.5 31.8 152.9 31.1C156 29.7 156.9 29.3 159.5 28C160.7 27.5 161.8 27 161.9 27C162.1 27 162.5 26.8 162.9 26.6C164.2 26 166.5 25 166.7 25C166.9 25 167.4 24.8 167.9 24.5C168.4 24.2 169 24 169.3 24C169.5 24 169.9 23.8 170.1 23.7C170.4 23.5 171 23.2 171.5 23C173.2 22.5 175.4 21.7 175.6 21.5C175.8 21.4 176.3 21.2 176.9 21C177.4 20.9 178.7 20.5 179.6 20.1C180.6 19.7 181.9 19.3 182.5 19.1C183.1 18.9 183.9 18.7 184.2 18.6C185.5 18 193.9 15.6 198 14.5C199.2 14.2 200.8 13.7 201.7 13.5C202.6 13.2 203.5 13 203.8 13C204 13 205.1 12.8 206.1 12.5C209 11.7 215.3 10.4 220.8 9.5C222.3 9.3 224.7 8.9 225.9 8.6C227.2 8.4 229.4 8.1 230.9 8C232.4 7.8 234.1 7.6 234.6 7.5C235.2 7.4 236.8 7.2 238.1 7.1C239.5 7 242.1 6.8 244 6.5C246.9 6.2 250 6.1 265.2 6.1C280.8 6.1 283.5 6.2 286.2 6.6C288 6.8 290 7 290.7 7C291.4 7 293.6 7.2 295.6 7.5C297.5 7.8 300 8.1 301.1 8.2C303.5 8.5 305.9 8.9 308.8 9.4C309.9 9.6 311.5 9.9 312.3 10C313.1 10.1 314.5 10.4 315.3 10.6C316.2 10.8 317.6 11.1 318.4 11.2C319.9 11.5 320.4 11.6 323.6 12.4C324.6 12.6 326.1 12.9 326.9 13.1C327.7 13.3 329.4 13.7 330.8 14.1C332.1 14.5 333.7 14.9 334.5 15.1C336.3 15.6 339.2 16.4 340.1 16.7C340.5 16.8 341.4 17.1 342.1 17.4C342.8 17.6 343.8 17.9 344.4 18C344.9 18.2 345.7 18.4 346.2 18.6C346.6 18.8 347.1 19 347.4 19C347.6 19 348.3 19.2 349 19.5C349.6 19.7 350.7 20.2 351.5 20.4C352.3 20.7 353.3 21.1 353.8 21.2C354.2 21.4 355.4 21.8 356.2 22.2C357.1 22.5 358.3 22.9 358.7 23C359.2 23.2 359.8 23.5 360.1 23.7C360.4 23.8 360.8 24 361 24C361.2 24 361.8 24.2 362.3 24.5C362.9 24.7 364.1 25.3 365 25.6C367.6 26.7 369.4 27.5 371.6 28.5C372.2 28.8 373.3 29.3 374.1 29.6C376 30.5 385.5 35.2 388.1 36.6C389.2 37.2 390.5 37.9 390.9 38.1C391.3 38.3 391.8 38.6 392 38.7C392.2 38.9 393 39.4 393.8 39.8C394.6 40.3 395.7 40.9 396.2 41.2C396.7 41.5 397.5 41.9 397.9 42.1C398.3 42.3 399.4 43 400.4 43.6C401.3 44.2 402.6 45 403.2 45.4C404.7 46.3 413.1 51.9 415.5 53.6C416.5 54.4 417.9 55.3 418.5 55.7C420.7 57.3 428 63 432.2 66.5C439.9 72.9 448.7 81.4 455.3 88.6C457 90.4 458.8 92.4 459.5 93.1C463.7 97.7 474 110.7 478 116.6C481.4 121.7 483 124.1 483 124.2C483 124.2 483.4 124.8 483.8 125.5C484.3 126.1 484.9 127 485.1 127.4C485.3 127.8 485.7 128.4 485.9 128.8C486.2 129.1 486.8 130.2 487.4 131.1C487.9 132 488.6 133.2 488.9 133.7C489.2 134.2 489.7 135 489.9 135.4C490.1 135.8 490.6 136.6 490.9 137.1C491.2 137.7 491.7 138.5 491.9 138.9C492.1 139.3 492.8 140.5 493.4 141.6C495.6 145.7 502 158.7 502 159.2C502 159.3 502.2 159.8 502.5 160.4C502.7 160.9 503.2 161.9 503.5 162.5C503.7 163.1 504.2 164.1 504.5 164.8C504.8 165.4 505 166.1 505 166.2C505 166.4 505.2 166.9 505.5 167.4C505.8 167.9 506 168.5 506 168.8C506 169 506.1 169.3 506.2 169.4C506.4 169.5 506.7 170.3 507 171C507.2 171.8 507.7 173 508 173.8C508.3 174.5 508.7 175.6 508.9 176.3C509.1 176.9 509.3 177.6 509.5 177.9C509.7 178.4 510.2 179.8 510.9 182C511.5 184.1 512 185.6 512.3 186.2C512.5 186.8 513 188.3 513.8 191.2C513.9 191.9 514.2 192.8 514.4 193.2C514.7 194.2 515.4 196.6 516.6 201.9C516.9 202.8 517.2 204.1 517.4 204.8C517.6 205.4 517.8 206.3 517.9 206.9C518 207.4 518.2 208.8 518.5 210C519.6 214.9 521.2 223.8 521.8 228.8C521.9 229.9 522.2 232 522.4 233.5C522.6 234.9 522.9 237.6 523 239.6C523.2 241.5 523.4 243.9 523.5 244.9C523.9 247.3 524.2 290.1 524.3 346.5C524.3 387.6 524.3 393.6 524 393.8C523.8 393.9 513.5 394 498.4 394C478.5 394 473.2 393.9 473.1 393.7ZM39.1 365.6C39 365.6 37.9 365.4 36.6 365.2C33 364.7 30.1 363.4 27.8 361.2C26.4 359.9 25 358.2 25 357.8C25 357.7 24.9 357.5 24.7 357.3C24.4 356.9 23.6 355 22.6 352C22.2 351 22.1 349.9 22.1 347.6C22.1 345.2 22.2 344.4 22.7 343.1C24.1 339.1 27.2 335.4 31.9 332.2C33.5 331.1 39.9 328 40.6 328C40.7 328 41.2 327.8 41.6 327.6C42 327.4 42.8 327.2 43.4 327C43.9 326.9 45 326.6 45.8 326.4C48.2 325.7 51.6 325.2 53.7 325.2C56.8 325.2 61.3 326.3 63.2 327.5C63.5 327.6 63.9 327.9 64.1 328C65.7 328.7 70 333.7 70 334.8C70 335 70.1 335.3 70.2 335.4C70.3 335.4 70.8 336.4 71.1 337.6C71.7 339.2 71.9 340.2 71.9 342.6C72 345.3 72 345.8 71.4 347.5C70.5 350.3 69.7 351.7 67.6 354.1C65.7 356.3 62.7 358.5 60.1 359.9C59.7 360.1 59.2 360.4 59 360.5C58.4 360.9 55.8 362 55.6 362C55.5 362 54.9 362.2 54.4 362.5C53.8 362.8 53.2 363 53 363C52.8 363 52.1 363.2 51.4 363.5C49.7 364.1 46.5 364.9 44.2 365.2C41.8 365.6 39.4 365.8 39.1 365.6ZM43.2 354.3C45.9 353.8 47.2 353.4 50.1 352.3C51.6 351.8 52.1 351.6 54.7 350.3C55.6 349.9 56.9 348.9 58 347.8L59.9 345.9L60.3 344.2L60.8 342.6L60.3 341C59.6 338.7 58.3 337.5 56.1 336.8C55.2 336.5 53.9 336.2 53.2 336.2C51.2 336.2 46.2 337.5 43.8 338.5C43.3 338.8 42.7 339 42.6 339C42.2 339 39 340.7 37.6 341.7C35.7 342.9 34.3 344.6 33.7 346.5L33.2 348.1L33.7 349.6C34.3 352.1 35.8 353.6 38.3 354.3C39.2 354.5 40 354.7 40.2 354.7C40.5 354.7 41.8 354.5 43.2 354.3ZM24.4 325C22.4 324.8 20.2 324.1 18.4 323.1C16.9 322.3 14.5 320 13.9 318.9C12.8 316.7 12 314.9 12 314.4C12 314.2 11.8 313.3 11.6 312.5C11.3 311.5 11.1 310.2 11.1 307.8C11.1 304.9 11.2 304.1 11.7 302.8C12.6 300.4 13.9 298.7 16.2 297C17.7 295.9 21.1 294 21.6 294C21.8 294 22.4 293.8 22.9 293.5C24.7 292.6 25.1 292.9 26 296C26.2 297 26.7 298.7 27 299.8C27.9 303 27.9 302.8 26.8 303.3C26.3 303.5 25.5 303.9 25 304.1C23.9 304.5 22.2 306 21.5 307.2C21 307.9 20.9 308.4 20.9 309.8C21 311.2 21.1 311.7 21.6 312.5C22.5 313.9 24.3 315 25.8 315C27.4 315 29.3 314 30.2 312.7C31 311.5 31.9 308.2 32.1 305.2C32.3 303.4 32.7 301.7 33.7 299.1C35 295.8 37 293.5 40.3 291.9C42 291 45.4 290.2 47.5 290.2C49.6 290.2 52.7 291 54.5 291.9C58.8 294.1 61.6 300 61.6 306.9C61.6 310.1 61.2 311.7 59.8 313.9C58.3 316.2 56.4 317.5 51.8 319.5C50.2 320.2 49.9 320 49.4 318C49.1 317.3 48.7 315.9 48.5 315C48.2 314.1 48 313.2 48 312.9C48 312.7 47.8 312.1 47.6 311.6C47.4 311.1 47.3 310.6 47.3 310.4C47.4 310.3 48.1 309.8 48.8 309.4C50.7 308.5 51.9 307.1 52.2 305.8C52.5 304.3 52.2 302.3 51.4 301.6C50.8 300.9 49.2 300 48.6 300C47.8 300 46.1 301 45.6 301.8C45.1 302.6 45 303.2 44.1 309.4C43.9 311 43.6 312.7 43.4 313.3C43.2 313.9 43 314.5 43 314.7C43 315.3 41.2 318.8 40.3 319.9C38.6 322 35.1 324 31.8 324.8C30.4 325.1 26.3 325.2 24.4 325ZM9.1 286.5C8.9 286.3 8.7 284.8 8.5 283.1C8 277 8 276.3 8.3 276.1C8.7 275.7 13.2 275.3 19.4 275C22.3 274.9 25.6 274.6 26.8 274.5C27.9 274.4 31.4 274.2 34.4 274C37.4 273.9 40.8 273.6 41.9 273.5C43 273.4 46.4 273.2 49.5 273C52.6 272.9 55.4 272.7 55.7 272.6C56.7 272.3 56.9 272.8 57.1 275.9C57.2 277.5 57.4 279.7 57.5 280.8C57.7 282.5 57.7 282.9 57.4 283.2C57.1 283.5 56 283.6 52.7 283.8C50.3 283.9 46.4 284.2 43.9 284.4C41.4 284.6 37.1 284.9 34.2 285C31.4 285.1 28.3 285.4 27.2 285.5C26.2 285.6 23.6 285.8 21.4 285.9C17.6 286 12.9 286.3 10.5 286.6C9.7 286.7 9.3 286.7 9.1 286.5ZM450.8 142.8C452 141.9 454.2 140.2 455.6 139.1C457.1 138 459.1 136.4 460.2 135.6C461.3 134.8 462.5 133.9 462.8 133.6C463.2 133.3 464.7 132.2 466.1 131.1C467.6 130 469.8 128.3 471.1 127.3C472.5 126.2 473.5 125.3 473.5 125C473.5 124.6 472.3 122.8 471.2 121.6C470.9 121.4 470.5 120.9 470.3 120.6C470.1 120.3 469.8 120 469.7 120C469.6 120 468.9 120.4 468.3 120.9C467.6 121.5 466.1 122.6 464.9 123.5C460.2 127 457.6 129 457.2 129.4C456.8 129.8 456.2 129.9 456.2 129.5C456.2 129.4 456.5 128.8 456.9 128.1C457.3 127.4 457.7 126.5 457.9 126.1C458.1 125.7 458.4 125.2 458.5 125C460 122.4 464.3 113.5 464.3 113.1C464.2 112.4 461 108 460.4 108C460.2 108 459.2 108.6 458.1 109.4C457.1 110.2 455.1 111.8 453.6 112.9C452.2 114 450.1 115.5 449 116.4C447.9 117.2 445.8 118.8 444.4 119.9C441.8 121.8 438 124.7 437.2 125.3C437 125.5 436.4 125.9 435.9 126.3C435.4 126.7 435 127.2 435 127.4C435 127.6 435.8 128.8 436.7 130C437.9 131.6 438.5 132.2 438.9 132.2C439.2 132.2 440 131.8 440.8 131.2C441.5 130.6 442.5 129.9 442.9 129.6C443.6 129.1 448.1 125.6 450.2 124C452.3 122.4 452.5 122.7 451.1 125.3C450.7 126.2 448.9 129.7 447.1 133.1L444 139.4L445.6 141.6C447.3 143.9 447.9 144.5 448.4 144.5C448.5 144.5 449.6 143.7 450.8 142.8ZM89.1 134.5C93.2 133.1 97 128.1 97 124.2C97 121.8 95.6 118.9 93.4 116.6C92.2 115.4 90.3 114.1 89.5 113.9C89.1 113.8 88.7 113.5 88.4 113.3C88.1 113.1 87.2 113 85.8 113C83.6 113 81.7 113.5 80.3 114.6C79.9 114.8 79.6 115 79.4 115C79.3 115 78.7 115.4 78.1 115.8C74.9 118 73.8 118.2 72.7 117C71.7 116.1 71.8 114.9 72.8 113.8C73.4 113.1 73.7 113 74.9 113C75.7 113 76.5 113.2 76.9 113.4L77.5 113.8L78 113.3C78.3 113.1 79.1 112.1 79.7 111.2C80.3 110.3 80.9 109.5 81 109.4C81.5 109.1 81.2 108.1 80.5 107.5C80.1 107.2 79.7 107 79.6 107C79.5 107 78.9 106.8 78.4 106.5C77.6 106 76.9 105.9 75 105.9C73 105.9 72.5 106 72.1 106.3C71.8 106.6 71.5 106.8 71.3 106.8C70.6 106.8 67 110.5 67 111.2C67 111.3 66.8 111.7 66.5 112C66.3 112.4 65.9 113.4 65.7 114.2C65.5 115.5 65.5 116.2 65.7 117.4C66.4 121 70.1 124.6 73.8 125.3C76.6 125.8 79.1 125.1 82.5 123C86.2 120.7 87.5 120.5 89.1 122.2C89.9 123.1 90 123.4 90 124.4C90 125.4 89.9 125.7 89.2 126.4C88 127.5 86.9 127.7 85 127C82.5 126 82.8 125.9 80.8 128.9L79 131.6L79.8 132.3C80.3 132.7 80.7 133 80.9 133C81 133 81.5 133.2 82 133.5C82.8 133.9 85.8 134.7 87.3 135C87.4 135 88.2 134.8 89.1 134.5ZM433.4 120.2C434.5 120.1 435.7 119.8 436.1 119.6C439.9 117.9 442.1 116.3 445.3 113.2C447.4 111.1 449.8 107.9 450.1 106.7C450.2 106.4 450.4 106 450.6 105.8C450.9 105.4 451.5 102.6 451.5 101.2C451.5 98.3 450.5 96 448.3 93.7C446.5 92 445.3 91.2 443.3 90.7C441.3 90.1 440 90.1 437.7 90.7C434.2 91.6 431 93.7 427.2 97.5C425.3 99.4 422.8 102.8 422.8 103.4C422.8 103.5 422.6 103.8 422.5 103.9C422.3 104.1 421.9 105 421.6 105.9C420.4 109.2 420.9 112.8 422.9 115.4C424 116.9 426 118.7 427.1 119.3C428 119.8 430.2 120.4 431.2 120.5C431.3 120.5 432.3 120.4 433.4 120.2ZM109.3 112.8C111 111.1 111.5 110.4 111.4 110C111.3 109.8 109.2 107.5 106.6 105.1C104.1 102.6 102 100.4 102 100.2C102 100 101.8 99.6 101.7 99.4C101.5 99.1 101.2 98.5 101.1 98C101 97.5 100.8 96.9 100.6 96.6C100.4 96.3 100.2 95.7 100 95.2C99.9 94.8 99.5 93.6 99.1 92.6C98.8 91.7 98.3 90.4 98.1 89.9C97.9 89.3 97.5 88.1 97.2 87.2C96.8 86.4 96.4 85.2 96.2 84.8C95.6 82.8 95 81.8 94.6 81.8C94.2 81.8 89.7 86.3 89.5 86.9C89.5 87.3 89.7 88 90.5 89.9C90.7 90.4 91.2 91.5 91.5 92.2C91.8 93 92.3 94.1 92.5 94.6C92.8 95.2 93 95.9 93.1 96.3L93.3 97L92.6 97C92.3 97 91.5 96.8 91 96.5C90.5 96.2 89.9 96 89.7 96C89.6 96 89 95.8 88.4 95.5C86.2 94.5 84 93.8 83.2 93.8C82.6 93.8 82.1 94.2 80.1 96.2C78.8 97.5 77.8 98.7 77.8 98.8C77.8 99.3 79.2 99.9 83 101.1C85.2 101.8 86.6 102.3 87 102.5C87.3 102.6 87.9 102.8 88.5 103C89.1 103.1 90 103.4 90.4 103.6C91.4 104 93.4 104.7 94.6 105C96.5 105.5 97.5 106.3 101.9 110.6C104.4 113 106.5 115 106.8 115C107 115 108.1 114 109.3 112.8ZM431.6 112.8C430.6 112.6 429.3 111.4 429 110.6C428.5 109.1 428.8 107.1 429.8 105.7C431.6 102.9 434.7 100 437.4 98.7C438.3 98.2 439 98 440.1 98L441.6 98L442.7 99.2L443.8 100.3L443.8 101.6C443.8 103.7 442.4 105.9 439.6 108.6C436.5 111.6 433.4 113.3 431.6 112.8ZM415.8 103.3C416.9 102 418.8 99.8 420 98.5C421.2 97.2 423.2 94.9 424.4 93.5C425.7 92 426.9 90.7 427.2 90.4C427.4 90.1 428.7 88.6 430.1 87C431.5 85.4 432.7 84.1 432.7 84C433.1 83.7 434.8 81.6 434.8 81.5C434.8 81.4 433.8 80.5 432.6 79.5C431.4 78.5 430.3 77.5 430.2 77.3C429.7 76.5 429 77.1 424 83C423.2 83.9 422.4 84.9 422 85.2C421.7 85.6 420.4 87 419.2 88.5C417.9 89.9 415.6 92.6 414 94.4C409.2 99.9 408.5 100.7 408.5 101.2C408.5 101.4 408.8 101.9 409.2 102.2C409.6 102.5 410.7 103.4 411.6 104.2C412.5 105.1 413.4 105.8 413.5 105.8C413.6 105.8 414.6 104.7 415.8 103.3ZM123.5 99.7C123.7 99.4 124 99.2 124.1 99.2C124.2 99.2 124.9 98.9 125.6 98.4C126.9 97.5 128.5 95.9 129.4 94.6C130.1 93.6 130.8 91.5 130.8 90.1C130.8 88.8 130.1 86 129.6 85.5C129.4 85.3 129.2 85 129.2 84.9C129.2 84.8 128.9 84.1 128.4 83.4C127.5 82 126.2 80.7 124.6 79.7C123.5 79 121.2 78.2 120 78.2C119.1 78.2 115.3 79.2 114.2 79.6C110.4 81.2 109.9 81.3 108.8 80.4C108.1 79.8 108 79.5 108 78.6C108 77.7 108.1 77.5 108.9 76.9C110.2 75.9 110.9 75.9 112.6 76.7C113.3 77.2 114.1 77.5 114.3 77.5C114.5 77.5 115.5 76.6 116.6 75.5C118.9 73.2 119 72.9 116.9 71.3C114.1 69.2 111.2 68.5 109.1 69.5C108.6 69.8 108 70 107.9 70C107.7 70 106.5 70.8 105.2 71.8C103.7 73 102.1 75.2 101.6 77C101.2 78.4 101.2 78.7 101.5 80.1C102.5 85 106.8 89 111.2 89C112.6 89 115 88.4 117.2 87.5C118.8 86.9 120.6 86.7 121.6 87C122.8 87.4 123.9 88.9 123.9 90.2C123.9 91.1 123.7 91.4 122.9 92.1C122.1 92.9 121.8 93 120.7 93C119.6 93 119.1 92.8 118.2 92.3C117.5 91.8 117 91.4 117 91.3C117 91.1 116.7 91 116.4 91C115.8 91 111.8 94.9 111.8 95.5C111.8 95.9 113.5 97.6 114.6 98.4C117.2 100 118 100.3 120.8 100.1C122.4 100.1 123.1 99.9 123.5 99.7ZM403.1 91.2C404.5 89.4 405.9 87.5 406.3 86.9C406.7 86.3 407.5 85.3 408.1 84.6C408.7 83.8 409.8 82.4 410.6 81.3C414.4 76.2 414.6 76 415.1 76C415.4 76 416.7 76.8 417.9 77.8C419.2 78.7 420.4 79.5 420.6 79.5C420.8 79.5 421.2 79.2 421.5 78.8C421.8 78.4 422.7 77.2 423.6 76C424.5 74.9 425.2 73.7 425.2 73.5C425.2 73.3 424.3 72.4 423.1 71.5C420 69.1 417.3 67.1 415 65.4C413.9 64.5 412.1 63.2 410.9 62.3C409.8 61.5 408.7 60.7 408.4 60.7C407.9 60.7 407.8 60.9 405.4 64C404.5 65.1 403.8 66.3 403.8 66.5C403.8 67.1 404.2 67.5 406.6 69.3C407.9 70.2 408.7 71.1 408.7 71.3C408.7 71.6 407.9 72.9 406.8 74.3C405.7 75.6 404.2 77.7 403.4 78.8C402.6 79.9 401.3 81.6 400.5 82.6C399.7 83.6 398.4 85.4 397.5 86.6C396.6 87.8 395.6 89.1 395.3 89.5C395 89.9 394.8 90.3 394.8 90.4C394.8 90.7 398.3 93.6 399.4 94.2C399.6 94.3 400.1 94.5 400.3 94.5C400.5 94.5 401.8 93 403.1 91.2ZM389.4 85.1C389.6 84.6 389.9 83.5 390.1 82.8C390.3 82 390.7 80.6 391 79.6C391.3 78.6 391.7 77 392 76.1C392.3 75.1 392.7 73.6 393 72.6C393.2 71.7 393.6 70.5 393.7 70.1C393.8 69.7 394.2 68.6 394.5 67.6C394.9 66 395.2 65.2 396.5 60.6C396.8 59.6 397.3 57.9 397.6 56.8C398 55.7 398.2 54.6 398.1 54.4C398 54 396.2 52.8 394.6 51.9C394.2 51.7 393.4 51.2 392.8 50.9C392.2 50.5 391.6 50.3 391.5 50.3C391.4 50.3 389.1 52.4 383.2 58.1C381.1 60.2 376.7 64.4 373.6 67.5C370.4 70.5 367.8 73.2 367.8 73.4C367.8 73.6 368.5 74.1 369.3 74.6C371.6 75.9 371.8 76.1 372.6 76.6C372.9 76.8 373.4 77 373.6 77C373.7 77 374.7 76.1 375.7 75.1C377.2 73.5 377.6 73.2 377.9 73.5C378.1 73.7 378.6 74 379 74.2C379.4 74.4 380.4 75 381.2 75.5C384.3 77.3 384.4 77.5 383.5 79.4C382.8 81.1 382.6 83 383.2 83C383.5 83 387.5 85.4 387.9 85.8C388.4 86.3 389 86 389.4 85.1ZM143.7 84.3C144.9 83.6 146.1 82.7 146.4 82.4C147.1 81.9 147.2 81.1 146.7 80.8C146.1 80.5 133.9 62 134.1 61.7C134.2 61.5 134.8 61 135.6 60.5C136.3 60.1 137.1 59.6 137.3 59.4C137.4 59.2 137.7 59 137.8 59C138.1 59 139.5 57.7 139.5 57.5C139.5 57.1 135.5 51.3 135.2 51.3C134.9 51.3 133.5 52 132.7 52.6C132.4 52.9 131.5 53.5 130.9 53.9C130.2 54.3 129.5 54.7 129.3 54.9C124.7 57.8 117.7 62.6 117.6 63C117.5 63.3 117.6 63.8 117.9 64.1C118.1 64.4 118.9 65.7 119.8 66.9C120.9 68.6 121.5 69.2 121.9 69.2C122.3 69.2 125.9 67.1 126.7 66.3C127.2 65.9 127.6 65.9 128.2 66.6C128.4 66.9 131.2 71 134.4 75.8C139.3 83.3 141.1 85.8 141.4 85.8C141.5 85.8 142.5 85.1 143.7 84.3ZM157.5 75.7C158.5 75.1 160.7 74 162.4 73.1C164 72.3 166.6 71 168 70.2C172.4 67.9 172.7 67.6 171.8 66.3C171.5 65.9 171 64.9 170.5 64C170.1 63.1 169.5 62.1 169.2 61.9L168.7 61.4L164.9 63.4C162.8 64.4 160.7 65.6 160.1 65.9C158.6 66.8 158.5 66.8 158.2 66.5C157.8 66.2 155.5 61.9 155.5 61.6C155.5 61.4 156.2 60.9 157.1 60.5C158 60 159.6 59.2 160.7 58.6C161.8 58 162.9 57.4 163.2 57.3C164.9 56.6 165.1 56.1 164.1 54.5C163.8 53.9 163.3 53 163.1 52.5C162.6 51.4 162 50.8 161.5 50.8C161.2 50.8 160.3 51.1 159.5 51.6C158.6 52.1 156.7 53.1 155.2 53.9C152.1 55.4 152 55.4 151.2 53.6C151 53 150.6 52.4 150.4 52.3C149.5 51.6 150.2 50.8 152.8 49.5C153.6 49.1 155.6 48.1 157.1 47.3C159.5 46 159.9 45.7 160 45.1C160 44.8 159.9 44.3 159.8 44.1C159.6 43.9 159.1 43.1 158.6 42.2C158.2 41.3 157.7 40.3 157.5 40.1C157.1 39.6 156 39.6 155.2 40.2C154.9 40.4 153.4 41.3 152 42C150.5 42.8 147.9 44.1 146.3 44.9C144.7 45.8 142.9 46.7 142.4 47C141.8 47.3 141.1 47.7 140.8 47.9L140.2 48.4L141.3 50.5C141.9 51.6 143.1 53.8 143.9 55.4C144.8 57.1 145.9 59.2 146.4 60.1C146.9 61.1 147.8 62.8 148.4 63.9C149 65 150.1 67.1 150.9 68.7C153.7 74.1 154.2 74.9 154.7 75.8C155.1 76.3 155.4 76.7 155.5 76.7C155.6 76.7 156.5 76.2 157.5 75.7ZM363.3 70.3C364.3 70.1 365.6 69.6 366.2 69.3C367.7 68.5 370.8 65.3 371.2 64.3L371.6 63.5L369.6 61.3C368.5 60.1 367.5 59.1 367.4 59.1C367.2 59 366.6 59.6 366 60.3C365.4 61 364.5 61.8 364 62.1C361.5 63.7 358.2 61.9 358.3 59C358.3 58 359.1 54.7 359.7 53.6C359.8 53.3 360.2 52.6 360.5 51.9C361.5 49.8 363.2 47.3 364.2 46.7C366.8 44.9 369.7 45.9 370.1 48.7C370.2 49.4 370.2 50.2 370.1 50.5C369.8 51.5 370.4 51.9 372.2 52.1C373.1 52.2 374.5 52.3 375.2 52.4L376.4 52.6L376.7 52C376.9 51.7 377 50.3 377.1 48.4L377.1 45.3L376.3 43.7C375.6 42.1 373.4 39.8 372.7 39.7C372.5 39.7 372.2 39.6 372.1 39.5C371.9 39.3 371.1 38.9 370.3 38.6C368.3 37.8 365.2 37.8 363.2 38.6C362.5 38.9 361.5 39.4 361.1 39.6C359.8 40.5 357.5 42.9 356.3 44.6C355.1 46.4 353 50.4 353 50.8C353 51 352.8 51.5 352.5 52.1C352.3 52.7 351.8 54.2 351.5 55.5C350.4 60.1 351.3 64.7 353.8 67C355.4 68.6 357.2 69.6 359.6 70.3C360.4 70.5 361.2 70.7 361.3 70.7C361.4 70.7 362.3 70.6 363.3 70.3ZM384.5 69.2C383.7 68.7 383.1 68.1 383 67.9C383 67.6 383.8 66.6 385.2 65.1C386.4 63.8 387.8 62.2 388.4 61.6C389.6 60.2 390.2 60.3 389.6 61.7C389.4 62.2 389 63.1 388.9 63.8C388.3 65.5 387.7 67.3 387.4 68.1C387.2 68.5 387 69.1 387 69.4C386.8 70.1 386 70.1 384.5 69.2ZM177.6 65.6C178.4 65.3 179.3 65 179.6 64.9C180.1 64.7 180.2 63.1 179.7 62.4C179.5 62.1 179.2 61.5 179.1 61C179 60.5 178.8 60 178.7 59.8C178.6 59.7 178.3 59 178 58.2C177.3 56.1 176.9 55.2 176.5 54.1C176.2 53.5 176 53 176 52.8C176 52.7 175.6 51.7 175.1 50.5C174.6 49.3 174.1 48 174 47.5C173.8 47 173.5 46.4 173.3 46.1C172.9 45.5 173 44.8 173.5 44.8C173.6 44.8 173.8 45.1 174 45.4C174.1 45.8 175 47.3 175.9 48.8C176.7 50.2 177.9 52 178.4 52.9C178.9 53.7 179.8 55.2 180.4 56.1C181 57.1 181.7 58.2 181.9 58.6C182.1 59 182.6 59.9 183 60.5C183.4 61.1 183.9 61.9 184 62.2C184.3 62.8 184.9 62.9 186.1 62.4C186.5 62.2 187.4 61.9 187.9 61.6C189.6 60.9 189.6 61.3 188.5 55.4C188.2 54 187.9 52.2 187.7 51.4C187.6 50.5 187.3 49 187.1 47.9C186.9 46.8 186.6 45.2 186.4 44.3C185.9 42.5 185.9 40.7 186.3 40.8C186.6 40.9 186.8 41.5 188.4 45.9C188.7 47 189.3 48.3 189.5 48.9C189.8 49.5 190 50.1 190 50.3C190 50.5 190.2 50.9 190.3 51.1C190.5 51.4 190.8 52 191 52.5C191.5 54.2 192.3 56.4 192.5 56.6C192.6 56.8 192.8 57.3 193 57.9C193.3 59.2 193.8 59.4 195.3 58.9C195.9 58.6 196.9 58.3 197.6 58.1C199 57.6 199.3 57 198.5 55.5C198.2 55 198 54.4 198 54.2C198 54 197.8 53.4 197.5 52.9C197.2 52.3 197 51.7 197 51.5C197 51.4 196.8 50.9 196.7 50.5C196.5 50.2 196 49 195.6 48C195.3 47 194.8 45.8 194.6 45.4C194.5 45 194 43.8 193.6 42.8C193.3 41.7 192.7 40.4 192.5 39.8C192.2 39.3 192 38.7 192 38.6C192 38.4 191.1 36 190.6 34.9C190.3 34.1 189.7 32.7 189.1 30.9C188.9 30.3 188.6 29.5 188.4 29.1C188.2 28.7 188 28.2 188 28.1C188 27.9 187.8 27.7 187.6 27.5C187.3 27.2 187.1 27.2 186.7 27.5C186.4 27.6 185.8 27.9 185.4 28C185 28.1 183.8 28.5 182.9 28.9C181.9 29.2 180.6 29.7 180.1 29.9L179 30.3L179 31.3C179 31.9 179.2 33.4 179.5 34.6C180 37.1 180.3 38.8 180.9 42C181 43.2 181.4 44.8 181.6 45.7C181.8 46.5 182 47.4 182 47.7C182 48.5 181.3 48.4 181 47.6C180.9 47.2 180.4 46.4 179.9 45.6C179.4 44.9 179 44.3 179 44.2C179 44.1 178.6 43.4 178.1 42.6C177.5 41.8 177 40.9 176.8 40.6C176.2 39.6 174.6 36.9 174.2 36.3C172.4 33.2 171.9 32.7 170.6 33.5C170.2 33.8 169.6 34 169.4 34C169.2 34 168.6 34.2 168.1 34.5C167.6 34.8 167 35 166.9 35C166.6 35 163.8 36.1 163.6 36.3C163.4 36.5 164.3 39.2 166 43.5C166.3 44.3 166.7 45.4 166.9 46C167.1 46.6 167.3 47.2 167.5 47.3C167.6 47.5 167.8 47.9 167.9 48.2C168.1 49.1 169 51.5 169.4 52.4C169.7 53.1 170.3 54.6 170.9 56.4C171.1 56.9 171.4 57.7 171.6 58.1C171.8 58.5 172 59 172 59.1C172 59.4 172.9 61.7 173.5 63.2C173.8 63.7 174 64.3 174 64.6C174 65.1 175 66.2 175.5 66.2C175.8 66.2 176.7 66 177.6 65.6ZM343.7 62.4C343.8 62.3 344 61.7 344.2 61.2C344.3 60.8 344.8 59.6 345.1 58.6C345.5 57.7 345.9 56.3 346.1 55.7C346.3 55.1 346.6 54.5 346.8 54.4C346.9 54.3 347 54 347 53.7C347 53.4 347.2 52.7 347.5 52.2C347.7 51.6 348.1 50.7 348.2 50.2C348.4 49.8 348.8 48.6 349.2 47.8C349.5 46.9 349.9 45.7 350.1 45.1C350.3 44.6 350.8 43.3 351.1 42.4C351.5 41.4 351.9 40.2 352 39.8C352.2 39.3 352.4 38.7 352.6 38.4C352.8 38.1 353 37.5 353.1 36.9C353.2 36.4 353.4 35.9 353.5 35.9C353.8 35.7 354.5 33.1 354.3 32.6C354.3 32.4 353.7 32.1 353.2 32C352.6 31.8 351.9 31.5 351.6 31.3C351.4 31.1 350.9 31 350.6 31C350.3 31 349.9 30.8 349.6 30.6C348.9 30.1 348.1 30.2 347.7 30.8C347.4 31.4 346.4 34.1 346 35.5C345.8 36 345.6 36.6 345.4 36.9C345.2 37.1 345 37.8 344.9 38.2C344.8 38.7 344.6 39.2 344.5 39.4C344.3 39.6 344.1 40.2 343.9 40.8C343.7 41.4 343.2 42.7 342.9 43.6C342.5 44.6 342.1 45.9 341.9 46.6C341.7 47.2 341.4 47.8 341.2 47.9C341.1 48 341 48.3 341 48.6C341 48.9 340.8 49.6 340.5 50.1C340.2 50.6 340 51.2 340 51.4C340 51.7 339.8 52.2 339.6 52.6C339.4 53 339 53.8 338.9 54.4C337.9 57.2 337.5 58.4 337.2 58.6C336.9 59.1 337 60.5 337.5 60.8C337.7 60.9 338.3 61.1 338.8 61.2C339.2 61.4 340.3 61.8 341.1 62.1C342.9 62.8 343.4 62.9 343.7 62.4ZM323.9 55.3C324 54.9 324.2 54.1 324.4 53.5C324.6 52.9 324.9 51.8 325.1 51C325.3 50.2 325.6 49.3 325.7 48.9C325.8 48.5 326.2 47.3 326.5 46.2C326.8 45.2 327.2 44.2 327.4 44.1C327.7 43.7 328.3 43.9 333.5 45.5C334.4 45.8 335.3 46 335.5 46C335.9 45.8 336.9 42.8 337.1 41.1C337.3 39.6 337.2 39.4 335.1 38.9C329.5 37.5 329.5 37.5 329.4 36.9C329.3 36.6 329.3 36 329.5 35.7C329.7 35.4 330 34.5 330.1 33.8C330.3 32.5 330.4 32.4 331 32.3C331.4 32.3 332.1 32.4 332.5 32.6C332.9 32.8 333.4 33 333.7 33C333.9 33 334.9 33.2 335.8 33.5C340 34.8 340.2 34.8 340.6 34.5C340.8 34.3 341 34 341 33.7C341 33.5 341.2 32.6 341.5 31.8C341.8 31 342.1 29.9 342.1 29.2L342.3 28.1L341.1 27.6C340.4 27.4 339.3 27.1 338.6 27C338 26.8 337.1 26.5 336.7 26.4C336.3 26.2 335.8 26 335.4 26C335.1 26 334.4 25.8 333.9 25.6C333.3 25.4 332.4 25.1 331.8 25C331.1 24.9 330.2 24.6 329.8 24.4C328.7 24 326.7 23.5 326 23.5C325.4 23.5 325.3 23.7 324.9 25.3C324.4 27.2 323.6 30 323.3 30.9C323.2 31.3 322.8 32.4 322.5 33.4C322.2 34.4 321.8 36 321.5 36.9C321 38.8 320.3 41.2 319.5 43.9C318.4 47.9 318 49.2 317.4 51.3C317 52.5 316.8 53.7 316.9 53.9C317 54.4 318 55 318.7 55C318.9 55 319.7 55.2 320.4 55.5C321.1 55.7 322.1 56 322.7 56L323.7 56L323.9 55.3ZM312.4 52.4C312.6 52 312.8 51.2 312.9 50.6C313 50.1 313.3 48.6 313.5 47.2C313.8 45.9 314.3 43.9 314.5 42.6C314.8 41.4 315.2 39.3 315.5 38C315.8 36.7 316.2 34.6 316.5 33.2C316.8 31.9 317.2 29.8 317.5 28.5C317.8 27.2 318.1 25.5 318.3 24.8C318.4 24 318.6 23.1 318.7 22.7C318.8 22.2 318.7 22 318 21.6C317.6 21.4 316.5 21.1 315.5 21C314.6 20.9 313.5 20.6 313.1 20.5C312.5 20.3 312.3 20.3 311.9 20.8C311.5 21.3 311 22.8 311 23.6C311 23.9 310.8 25 310.5 26.2C310 28.3 309.5 30.8 308.5 35.7C307.8 39.2 307.1 42.3 306.5 44.9C306.3 46.1 306 47.7 305.9 48.4C305.8 49.1 305.5 50 305.4 50.4C305.2 50.9 305.1 51.4 305.1 51.6C305.3 52 309.6 53.1 311.5 53.2C311.9 53.2 312.1 53 312.4 52.4ZM223.2 52.4C225.8 51.8 227.5 51 228.7 49.6C230.1 48 230.9 46.3 231.4 43.9C232 40.5 231.8 39 230.4 39C230.1 39 229 38.8 227.8 38.5C226.7 38.2 225.6 38 225.4 38.1C225.2 38.2 225 38.8 224.9 39.9C224.8 41.9 224 43.6 223 44.4C222.6 44.7 222 44.9 220.9 44.9L219.4 44.9L218.4 43.7C217.3 42.4 216.7 41.1 216.2 39C216.1 38.4 215.8 37.2 215.6 36.5C215.4 35.7 215.2 34 215.2 32.8C215.2 30.9 215.4 30.2 215.8 29.3C216.5 27.7 217.5 27 219 27C220.3 27 221.4 27.6 222.5 29.2C223 29.8 223.4 30.2 223.6 30.2C223.8 30.3 224.7 29.9 225.5 29.4C226.4 28.9 227.5 28.3 227.9 28.1C228.4 27.9 228.8 27.6 228.9 27.4C229 27.2 228.5 26.1 227.9 25C225.7 21.2 222.7 19.2 219.1 19.3C217.6 19.3 214.5 20 214 20.4C213.8 20.6 213.4 20.8 213.1 20.8C212.3 21.1 210.3 23.2 209.7 24.4C209.4 24.9 208.9 26.1 208.6 27C208.1 28.4 208 29.1 208 32.4C208 35.3 208.1 36.6 208.5 38.1C208.8 39.2 209 40.3 209 40.5C209 41.3 210.6 44.9 211.9 47.1C212.6 48.3 214.5 50.3 215.8 51.2C216.8 51.9 219.3 52.7 220.7 52.7C221 52.7 222.1 52.6 223.2 52.4ZM295 50C295.4 49.8 295.7 48.4 296 45.2C296.1 43.8 296.4 41.7 296.6 40.7C296.8 39.6 297 38.2 297 37.7C297 37.1 297.2 35.3 297.5 33.6C297.8 32 298 29.8 298.1 28.7C298.2 27.6 298.4 26.7 298.6 26.5C298.9 26.3 299.5 26.3 300.8 26.6C303.1 27.1 305.3 27.1 305.7 26.7C305.9 26.4 306.3 22.7 306.3 20.3L306.4 19.1L305 19C304.2 18.9 302.6 18.6 301.2 18.4C299.9 18.2 298.1 18 297.1 17.9C296.2 17.8 294.4 17.6 293.2 17.4C290.5 16.9 285.5 16.4 285.3 16.6C285.2 16.7 285 17.3 284.9 17.9C284.8 18.6 284.6 20.2 284.3 21.5C284 23.5 284 23.8 284.3 24.1C284.7 24.6 286.9 25 288.7 25C289.4 25 290.3 25.1 290.6 25.3L291.1 25.6L290.9 27.7C290.8 28.9 290.6 30.3 290.5 30.9C290.4 31.4 290.1 33.2 290 34.8C289.8 36.3 289.6 38 289.5 38.5C289.4 39 289.1 40.7 289 42.4C288.8 44 288.6 46 288.4 46.8C288.2 47.6 288.1 48.5 288.2 48.8C288.3 49.4 289.4 49.7 291.9 50C294.7 50.3 294.6 50.3 295 50ZM243.8 49C246.3 48.9 248.4 48.7 248.5 48.6C248.6 48.6 250.1 48.4 251.9 48.3C253.7 48.1 255.3 47.8 255.4 47.7C255.6 47.5 255.7 47.2 255.6 46.8C255.5 46.4 255.4 45 255.3 43.7C255.1 42.1 254.9 41.1 254.7 40.9C254.4 40.6 252.6 40.6 246 41.2C243.8 41.4 243.3 41.4 243.1 41.1C242.9 40.9 242.7 39.7 242.5 38.3C242.3 36.4 242.3 35.9 242.5 35.6C242.8 35.4 244.2 35.2 247.1 35C249.5 34.9 251.6 34.8 251.8 34.8C252.1 34.8 252.5 34.5 252.7 34.3C253.1 33.9 253.2 33.5 253.1 31.5C253 30.2 252.9 28.9 252.8 28.5L252.7 27.9L249 28.1C247 28.2 244.7 28.3 243.9 28.5C242.7 28.7 242.4 28.7 242.1 28.5C241.6 28 241.1 24.6 241.5 24.2C241.8 23.8 245.4 23.3 249.8 23L252.9 22.9L252.9 19.7C252.9 17.5 252.8 16.4 252.6 16.2C252.2 15.8 248.2 15.9 244.1 16.4C242.5 16.6 239.6 16.8 237.8 16.9C235.3 17 234.3 17.2 234 17.5L233.5 17.9L233.8 21.5C233.9 23.5 234.2 26.8 234.4 28.8C234.6 30.7 234.9 34.1 235 36.2C235.1 38.4 235.3 40.9 235.5 41.9C235.6 42.8 235.8 44.8 235.9 46.2C236 47.7 236.2 49 236.3 49.2C236.5 49.5 237 49.5 238 49.4C238.8 49.3 241.4 49.1 243.8 49ZM280.7 48.2C281.1 47.8 281.1 46.9 280.7 46.6C280.6 46.4 280.3 45.8 280.1 45.1C279.5 42.8 278.1 39.1 277.3 37.3C277 36.6 276.3 35.7 275.9 35.2C275.4 34.7 275 34.2 275 34.1C275 33.9 275.4 33.5 276 33.1C277.5 32.2 278.7 30.5 279.4 28.4C280.2 25.8 280.2 23.6 279.4 21.1C278.7 18.8 277.5 17.3 275.7 16.5C274.5 16 273.5 15.9 264.2 15.6C260.4 15.5 259.7 15.5 259.4 15.9C259.1 16.2 259 17.1 259 21.8C259 24.9 258.9 31.9 258.7 37.3C258.5 44.9 258.5 47.4 258.8 47.6C259.2 48.1 265.2 48.2 265.7 47.7C265.9 47.5 266 45.8 266 41.6C266 38.4 266.1 35.6 266.2 35.4C266.4 34.8 267.3 34.9 268.1 35.7C268.7 36.3 269.3 37.7 270.5 41.2C272.2 45.9 273 47.8 273.2 48C273.2 48.1 274.8 48.2 276.6 48.3C278.4 48.3 280 48.4 280.1 48.5C280.3 48.5 280.5 48.4 280.7 48.2ZM266.4 28.6C266.1 28.3 266.2 23.3 266.5 22.7L266.8 22.2L268.5 22.4C271 22.6 271.7 22.9 272.1 23.9C272.3 24.4 272.5 25.1 272.5 25.5C272.5 27.7 271.2 28.8 268.3 28.8C267.4 28.8 266.5 28.7 266.4 28.6Z"/></svg>
