<svg xmlns="http://www.w3.org/2000/svg" xmlns:xlink="http://www.w3.org/1999/xlink" width="80" height="256" viewBox="524.705 262.361 80 256" xmlns:c2pa="http://c2pa.org/manifest"><metadata><c2pa:manifest>AAAWgmp1bWIAAAAeanVtZGMycGEAEQAQgAAAqgA4m3EDYzJwYQAAABZcanVtYgAAAEdqdW1kYzJtYQARABCAAACqADibcQN1cm46YzJwYTo3MWY5MWQ0NS0xNjI1LTRmOTktODA4Yi1lNDVhNTAxMzA1YjgAAAADl2p1bWIAAAApanVtZGMyYXMAEQAQgAAAqgA4m3EDYzJwYS5hc3NlcnRpb25zAAAAALxqdW1iAAAARGp1bWRjYm9yABEAEIAAAKoAOJtxE2MycGEuaW5ncmVkaWVudC52MwAAAAAYYzJzaJP8S0CAUNrZd8Ry2dD+psAAAABwY2JvcqNpZGM6Zm9ybWF0bWltYWdlL3N2Zyt4bWxqaW5zdGFuY2VJRHgseG1wOmlpZDo5NGUwN2I2Ni1iMjk0LTQ3OTMtYWU3Mi05YmY3NDdkMjY2OTNscmVsYXRpb25zaGlwaHBhcmVudE9mAAAB4mp1bWIAAABBanVtZGNib3IAEQAQgAAAqgA4m3ETYzJwYS5hY3Rpb25zLnYyAAAAABhjMnNoJJEH3y1m2uVbtlModsac8AAAAZljYm9yomdhY3Rpb25zgqJmYWN0aW9ua2MycGEub3BlbmVkanBhcmFtZXRlcnOha2luZ3JlZGllbnRzgaJjdXJseC1zZWxmI2p1bWJmPWMycGEuYXNzZXJ0aW9ucy9jMnBhLmluZ3JlZGllbnQudjNkaGFzaFggXPX17NcP75pp836PEYc9zW8V6CWGB8TkI5icpUa9uQSkZmFjdGlvbngdY29tLmFudGhyb3BpYy5jbGF1ZGUucHJvdmlkZWRqcGFyYW1ldGVyc6F4H2NvbS5hbnRocm9waWMub3JpZ2luLWNvbmZpZGVuY2VndW5rbm93bmtkZXNjcmlwdGlvbnhmQ2xhdWRlIHByb3ZpZGVkIHRoaXMgZmlsZSBhdCB0aGUgcmVxdWVzdCBvZiBhIHVzZXIgYW5kIG1heSBoYXZlIGNyZWF0ZWQgb3IgbW9kaWZpZWQgdGhlIGZpbGUgY29udGVudHMubXNvZnR3YXJlQWdlbnShZG5hbWVmQ2xhdWRlcmFsbEFjdGlvbnNJbmNsdWRlZPUAAADIanVtYgAAAEBqdW1kY2JvcgARABCAAACqADibcRNjMnBhLmhhc2guZGF0YQAAAAAYYzJzaOhxMctBiuBwEHryquCtk3UAAACAY2JvcqVjYWxnZnNoYTI1NmNwYWRNAAAAAAAAAAAAAAAAAGRoYXNoWCByutH15B8ZJBBtmfoaPywL4+Be+NuNrJBhx7sAmCE5JGRuYW1lbmp1bWJmIG1hbmlmZXN0amV4Y2x1c2lvbnOBomVzdGFydBjLZmxlbmd0aBkeBAAAAj5qdW1iAAAAJ2p1bWRjMmNsABEAEIAAAKoAOJtxA2MycGEuY2xhaW0udjIAAAACD2Nib3KlY2FsZ2ZzaGEyNTZpc2lnbmF0dXJleE1zZWxmI2p1bWJmPS9jMnBhL3VybjpjMnBhOjcxZjkxZDQ1LTE2MjUtNGY5OS04MDhiLWU0NWE1MDEzMDViOC9jMnBhLnNpZ25hdHVyZWppbnN0YW5jZUlEeCx4bXA6aWlkOjFiMDZkNjViLWVlMzMtNDBjNi05ZWE3LWJmNjg5MGFjNTllZHJjcmVhdGVkX2Fzc2VydGlvbnODomN1cmx4LXNlbGYjanVtYmY9YzJwYS5hc3NlcnRpb25zL2MycGEuaW5ncmVkaWVudC52M2RoYXNoWCBc9fXs1w/vmmnzfo8Rhz3NbxXoJYYHxOQjmJylRr25BKJjdXJseCpzZWxmI2p1bWJmPWMycGEuYXNzZXJ0aW9ucy9jMnBhLmFjdGlvbnMudjJkaGFzaFggiJAky+kL83IK4NuZHBE/PMloRXkRPkMN2EHJUbKtKYCiY3VybHgpc2VsZiNqdW1iZj1jMnBhLmFzc2VydGlvbnMvYzJwYS5oYXNoLmRhdGFkaGFzaFggQIAD+lKSA42E2LPRN8EDJ2g8oqB9gZn1AFwZqiHf0dF0Y2xhaW1fZ2VuZXJhdG9yX2luZm+jZG5hbWVvQW50aHJvcGljIEZpbGVzZ3ZlcnNpb25lMS4wLjBrc3BlY1ZlcnNpb25lMi40LjAAABA4anVtYgAAAChqdW1kYzJjcwARABCAAACqADibcQNjMnBhLnNpZ25hdHVyZQAAABAIY2JvctKEWQISogEmGCFZAgowggIGMIIBjaADAgECAhRA5aAK7sI50L64g/oGQgU9Z1UTADAKBggqhkjOPQQDAzBJMRcwFQYDVQQKEw5BbnRocm9waWMsIFBCQzEuMCwGA1UEAxMlQW50aHJvcGljIENvbnRlbnQgQ3JlZGVudGlhbHMgUm9vdCBDQTAeFw0yNjA4MDcxODQzNTZaFw0yODA4MDYxOTQzNTZaMEQxFzAVBgNVBAoTDkFudGhyb3BpYywgUEJDMSkwJwYDVQQDEyBBbnRocm9waWMgQ2xhdWRlIENvbnRlbnQgU2lnbmluZzBZMBMGByqGSM49AgEGCCqGSM49AwEHA0IABJh6CmvLUBgFFNU0vUKlOVtE6djd17L5SuwX0LemFisBM3dkd/3cyjxFA3Qo5S46fX0/ihY0VZ7mfb9KF703t5OjWDBWMA4GA1UdDwEB/wQEAwIHgDAVBgNVHSUEDjAMBgorBgEEAYPoXgIBMAwGA1UdEwEB/wQCMAAwHwYDVR0jBBgwFoAUzlHiBIFOZFsj+OPEz5o+nMHXXMIwCgYIKoZIzj0EAwMDZwAwZAIwMXMdFJ4BetLLVY7ORuE9noqbbAZOZn/aArXyTwFAZfKrPzxF2vPoJNf1+UCdg1XGAjBwX1zd9WGqYkqmL5SFqw1QySjr1zJfpJM9+1rdDwSPLMOPOjKuiXjoU/pUUeG9RwmhY3BhZFkNngAAAAAAAAAAAAAAAAAAAAAAAAAAAAAAAAAAAAAAAAAAAAAAAAAAAAAAAAAAAAAAAAAAAAAAAAAAAAAAAAAAAAAAAAAAAAAAAAAAAAAAAAAAAAAAAAAAAAAAAAAAAAAAAAAAAAAAAAAAAAAAAAAAAAAAAAAAAAAAAAAAAAAAAAAAAAAAAAAAAAAAAAAAAAAAAAAAAAAAAAAAAAAAAAAAAAAAAAAAAAAAAAAAAAAAAAAAAAAAAAAAAAAAAAAAAAAAAAAAAAAAAAAAAAAAAAAAAAAAAAAAAAAAAAAAAAAAAAAAAAAAAAAAAAAAAAAAAAAAAAAAAAAAAAAAAAAAAAAAAAAAAAAAAAAAAAAAAAAAAAAAAAAAAAAAAAAAAAAAAAAAAAAAAAAAAAAAAAAAAAAAAAAAAAAAAAAAAAAAAAAAAAAAAAAAAAAAAAAAAAAAAAAAAAAAAAAAAAAAAAAAAAAAAAAAAAAAAAAAAAAAAAAAAAAAAAAAAAAAAAAAAAAAAAAAAAAAAAAAAAAAAAAAAAAAAAAAAAAAAAAAAAAAAAAAAAAAAAAAAAAAAAAAAAAAAAAAAAAAAAAAAAAAAAAAAAAAAAAAAAAAAAAAAAAAAAAAAAAAAAAAAAAAAAAAAAAAAAAAAAAAAAAAAAAAAAAAAAAAAAAAAAAAAAAAAAAAAAAAAAAAAAAAAAAAAAAAAAAAAAAAAAAAAAAAAAAAAAAAAAAAAAAAAAAAAAAAAAAAAAAAAAAAAAAAAAAAAAAAAAAAAAAAAAAAAAAAAAAAAAAAAAAAAAAAAAAAAAAAAAAAAAAAAAAAAAAAAAAAAAAAAAAAAAAAAAAAAAAAAAAAAAAAAAAAAAAAAAAAAAAAAAAAAAAAAAAAAAAAAAAAAAAAAAAAAAAAAAAAAAAAAAAAAAAAAAAAAAAAAAAAAAAAAAAAAAAAAAAAAAAAAAAAAAAAAAAAAAAAAAAAAAAAAAAAAAAAAAAAAAAAAAAAAAAAAAAAAAAAAAAAAAAAAAAAAAAAAAAAAAAAAAAAAAAAAAAAAAAAAAAAAAAAAAAAAAAAAAAAAAAAAAAAAAAAAAAAAAAAAAAAAAAAAAAAAAAAAAAAAAAAAAAAAAAAAAAAAAAAAAAAAAAAAAAAAAAAAAAAAAAAAAAAAAAAAAAAAAAAAAAAAAAAAAAAAAAAAAAAAAAAAAAAAAAAAAAAAAAAAAAAAAAAAAAAAAAAAAAAAAAAAAAAAAAAAAAAAAAAAAAAAAAAAAAAAAAAAAAAAAAAAAAAAAAAAAAAAAAAAAAAAAAAAAAAAAAAAAAAAAAAAAAAAAAAAAAAAAAAAAAAAAAAAAAAAAAAAAAAAAAAAAAAAAAAAAAAAAAAAAAAAAAAAAAAAAAAAAAAAAAAAAAAAAAAAAAAAAAAAAAAAAAAAAAAAAAAAAAAAAAAAAAAAAAAAAAAAAAAAAAAAAAAAAAAAAAAAAAAAAAAAAAAAAAAAAAAAAAAAAAAAAAAAAAAAAAAAAAAAAAAAAAAAAAAAAAAAAAAAAAAAAAAAAAAAAAAAAAAAAAAAAAAAAAAAAAAAAAAAAAAAAAAAAAAAAAAAAAAAAAAAAAAAAAAAAAAAAAAAAAAAAAAAAAAAAAAAAAAAAAAAAAAAAAAAAAAAAAAAAAAAAAAAAAAAAAAAAAAAAAAAAAAAAAAAAAAAAAAAAAAAAAAAAAAAAAAAAAAAAAAAAAAAAAAAAAAAAAAAAAAAAAAAAAAAAAAAAAAAAAAAAAAAAAAAAAAAAAAAAAAAAAAAAAAAAAAAAAAAAAAAAAAAAAAAAAAAAAAAAAAAAAAAAAAAAAAAAAAAAAAAAAAAAAAAAAAAAAAAAAAAAAAAAAAAAAAAAAAAAAAAAAAAAAAAAAAAAAAAAAAAAAAAAAAAAAAAAAAAAAAAAAAAAAAAAAAAAAAAAAAAAAAAAAAAAAAAAAAAAAAAAAAAAAAAAAAAAAAAAAAAAAAAAAAAAAAAAAAAAAAAAAAAAAAAAAAAAAAAAAAAAAAAAAAAAAAAAAAAAAAAAAAAAAAAAAAAAAAAAAAAAAAAAAAAAAAAAAAAAAAAAAAAAAAAAAAAAAAAAAAAAAAAAAAAAAAAAAAAAAAAAAAAAAAAAAAAAAAAAAAAAAAAAAAAAAAAAAAAAAAAAAAAAAAAAAAAAAAAAAAAAAAAAAAAAAAAAAAAAAAAAAAAAAAAAAAAAAAAAAAAAAAAAAAAAAAAAAAAAAAAAAAAAAAAAAAAAAAAAAAAAAAAAAAAAAAAAAAAAAAAAAAAAAAAAAAAAAAAAAAAAAAAAAAAAAAAAAAAAAAAAAAAAAAAAAAAAAAAAAAAAAAAAAAAAAAAAAAAAAAAAAAAAAAAAAAAAAAAAAAAAAAAAAAAAAAAAAAAAAAAAAAAAAAAAAAAAAAAAAAAAAAAAAAAAAAAAAAAAAAAAAAAAAAAAAAAAAAAAAAAAAAAAAAAAAAAAAAAAAAAAAAAAAAAAAAAAAAAAAAAAAAAAAAAAAAAAAAAAAAAAAAAAAAAAAAAAAAAAAAAAAAAAAAAAAAAAAAAAAAAAAAAAAAAAAAAAAAAAAAAAAAAAAAAAAAAAAAAAAAAAAAAAAAAAAAAAAAAAAAAAAAAAAAAAAAAAAAAAAAAAAAAAAAAAAAAAAAAAAAAAAAAAAAAAAAAAAAAAAAAAAAAAAAAAAAAAAAAAAAAAAAAAAAAAAAAAAAAAAAAAAAAAAAAAAAAAAAAAAAAAAAAAAAAAAAAAAAAAAAAAAAAAAAAAAAAAAAAAAAAAAAAAAAAAAAAAAAAAAAAAAAAAAAAAAAAAAAAAAAAAAAAAAAAAAAAAAAAAAAAAAAAAAAAAAAAAAAAAAAAAAAAAAAAAAAAAAAAAAAAAAAAAAAAAAAAAAAAAAAAAAAAAAAAAAAAAAAAAAAAAAAAAAAAAAAAAAAAAAAAAAAAAAAAAAAAAAAAAAAAAAAAAAAAAAAAAAAAAAAAAAAAAAAAAAAAAAAAAAAAAAAAAAAAAAAAAAAAAAAAAAAAAAAAAAAAAAAAAAAAAAAAAAAAAAAAAAAAAAAAAAAAAAAAAAAAAAAAAAAAAAAAAAAAAAAAAAAAAAAAAAAAAAAAAAAAAAAAAAAAAAAAAAAAAAAAAAAAAAAAAAAAAAAAAAAAAAAAAAAAAAAAAAAAAAAAAAAAAAAAAAAAAAAAAAAAAAAAAAAAAAAAAAAAAAAAAAAAAAAAAAAAAAAAAAAAAAAAAAAAAAAAAAAAAAAAAAAAAAAAAAAAAAAAAAAAAAAAAAAAAAAAAAAAAAAAAAAAAAAAAAAAAAAAAAAAAAAAAAAAAAAAAAAAAAAAAAAAAAAAAAAAAAAAAAAAAAAAAAAAAAAAAAAAAAAAAAAAAAAAAAAAAAAAAAAAAAAAAAAAAAAAAAAAAAAAAAAAAAAAAAAAAAAAAAAAAAAAAAAAAAAAAAAAAAAAAAAAAAAAAAAAAAAAAAAAAAAAAAAAAAAAAAAAAAAAAAAAAAAAAAAAAAAAAAAAAAAAAAAAAAAAAAAAAAAAAAAAAAAAAAAAAAAAAAAAAAAAAAAAAAAAAAAAAAAAAAAAAAAAAAAAAAAAAAAAAAAAAAAAAAAAAAAAAAAAAAAAAAAAAAAAAAAAAAAAAAAAAAAAAAAAAAAAAAAAAAAAAAAAAAAAAAAAAAAAAAAAAAAAAAAAAAAAAAAAAAAAAAAAAAAAAAAAAAAAAAAAAAAAAAAAAAAAAAAAAAAAAAAAAAAAAAAAAAAAAAAAAAAAAAAAAAAAAAAAAAAAAAAAAAAAAAAAAAAAAAAAAAAAAAAAAAAAAAAAAAAAAAAAAAAAAAAAAAAAAAAAAAAAAAAAAAAAAAAAAAAAAAAAAAAAAAAAAAAAAAAAAAAAAAAAAAAAAAAAAAAAAAAAAAAAAAAAAAAAAAAAAAAAAAAAAAAAAAAAAAAAAAAAAAAAAAAAAAAAAAAAAAAAAAAAAAAAAAAAAAAAAAAAAAAAAAAAAAAAAAAAAAAAAAAAAAAAAAAAAAAAAAAAAAAAAAAAAAAAAAAAAAAAAAAAAAAAAAAAAAAAAAAAAAAAAAAAAAAAAAAAAAAAAAAAAAAAAAAAAAAAAAAAAAAAAAAAAAAAAAAAAAAAAAAAAAAAAAAAAAAAAAAAAAAAAAAAAAAAAAAAAAAAAAAAAAAAAAAAAAAAAAAAAAAAAAAAAAAAAAAAAAAAAAAAAAAAAAAAAAAAAAAAAAAAAAAAAAAAAAAAAAAAAAAAAAAAAAAAAAAAAAAAAAAAAAAAAAAAAAAAAAAAAAAAAAAAAAAAAAAAAAAAAAAAAAAAAAAAAAAAAAAAAAAAAAAAAAAAAAAAAAAAAAAAAAAAAAAAAAAAAAAAAAAAAAAAAAAAAAAAAAAAAAAAAAAAAAAAAAAAAAAAAAAAAAAAAAAAAAAAAAAAAAAAAAAAAAAAAAAAAAAAAAAAAAAAAAAAAAAAAAAAAAAAAAAAAAAAAAAAAAAAAAAAAAAAAAAAAAAAAAAAAAAAAAAAAAAAAAAAAAAAAAAAAAAAAAAAAAAAAAAAAAAAAAAAAAAAAAAAAAAAAAAAAAAAAAAAAAAAAAAAAAAAAAAAAAAAAAAAAAAAAAAAAAAAAAAAAAAAAAAAAAAAAAAAAAAAAAAAAAAAAAAAAAAAAAAAAAAAAAAAAAAAPZYQGiDvDeJF3h/zAF5TyceUo4smV+2bNOjn2POPJk8vrbJCOjEyiE/ibFvjkIY08GDbD4LZ00jhq3U7boZb5Zilr8=</c2pa:manifest></metadata><defs><clipPath id="clip-0"><path clip-rule="nonzero" d="M 524.703125 345 L 604.703125 345 L 604.703125 518.363281 L 524.703125 518.363281 Z M 524.703125 345 "/></clipPath><clipPath id="clip-1"><path clip-rule="nonzero" d="M 543 262.363281 L 586 262.363281 L 586 298 L 543 298 Z M 543 262.363281 "/></clipPath><clipPath id="clip-2"><path clip-rule="nonzero" d="M 524.703125 310 L 604.703125 310 L 604.703125 518.363281 L 524.703125 518.363281 Z M 524.703125 310 "/></clipPath><clipPath id="clip-3"><path clip-rule="nonzero" d="M 524.703125 362 L 604.703125 362 L 604.703125 518.363281 L 524.703125 518.363281 Z M 524.703125 362 "/></clipPath><clipPath id="clip-4"><path clip-rule="nonzero" d="M 524.703125 337 L 604.703125 337 L 604.703125 405 L 524.703125 405 Z M 524.703125 337 "/></clipPath></defs><path fill="none" stroke-width="0.478" stroke-linecap="round" stroke-linejoin="miter" stroke="#00285C" stroke-opacity="1" stroke-dasharray="1.608 2.412" stroke-miterlimit="10" d="M -0.00135625 -0.00081875 L -0.00135625 20.702306 C -0.00135625 21.784338 1.463487 22.663244 3.264269 22.663244 L 22.25255 22.663244 C 24.053331 22.663244 25.514269 21.784338 25.514269 20.702306 L 25.514269 -0.00081875 " transform="matrix(1, 0, 0, -1, 551.9662, 327.8234)"/><path fill="none" stroke-width="0.478" stroke-linecap="round" stroke-linejoin="miter" stroke="#00285C" stroke-opacity="1" stroke-dasharray="1.608 2.412" stroke-miterlimit="10" d="M -0.0018875 0.00060625 L -0.0018875 13.442013 C -0.0018875 15.422481 1.603581 17.02795 3.58405 17.02795 L 43.056706 17.02795 C 45.033269 17.02795 46.638737 15.422481 46.638737 13.442013 L 46.638737 0.00060625 C 46.638737 -1.979862 45.033269 -3.585331 43.056706 -3.585331 L 3.58405 -3.585331 C 1.603581 -3.585331 -0.0018875 -1.979862 -0.0018875 0.00060625 Z M -0.0018875 0.00060625 " transform="matrix(1, 0, 0, -1, 541.1972, 348.3092)"/><g clip-path="url(#clip-0)"><path fill="none" stroke-width="0.478" stroke-linecap="round" stroke-linejoin="miter" stroke="#00285C" stroke-opacity="1" stroke-dasharray="1.608 2.412" stroke-miterlimit="10" d="M 0.0016125 -0.00153125 C -18.549169 -16.954656 -17.459325 -20.673406 -17.459325 -20.673406 L -17.459325 -153.985906 C -17.459325 -159.735906 -0.209325 -164.396062 17.939112 -164.396062 C 36.083644 -164.396062 50.794581 -159.735906 50.794581 -153.985906 L 50.794581 -20.673406 C 50.794581 -20.673406 50.673487 -14.439031 33.21255 -0.00153125 " transform="matrix(1, 0, 0, -1, 548.3187, 351.893)"/></g><g clip-path="url(#clip-1)"><path fill="none" stroke-width="0.478" stroke-linecap="round" stroke-linejoin="miter" stroke="#00285C" stroke-opacity="1" stroke-dasharray="1.796 2.694" stroke-miterlimit="10" d="M 0.0003125 0.0019 L 0.0003125 23.28315 C 0.0003125 24.5019 1.621406 25.490181 3.621406 25.490181 L 24.676094 25.490181 C 26.676094 25.490181 28.297187 24.5019 28.297187 23.28315 L 28.297187 0.0019 " transform="matrix(1, 0, 0, -1, 550.32, 290.5644)"/></g><path fill="none" stroke-width="0.478" stroke-linecap="round" stroke-linejoin="miter" stroke="#00285C" stroke-opacity="1" stroke-dasharray="1.796 2.694" stroke-miterlimit="10" d="M -0.0019 0.0013875 L -0.0019 15.177169 C -0.0019 17.388106 1.791069 19.177169 4.002006 19.177169 L 47.720756 19.177169 C 49.931694 19.177169 51.724663 17.388106 51.724663 15.177169 L 51.724663 0.0013875 C 51.724663 -2.20955 49.931694 -4.002519 47.720756 -4.002519 L 4.002006 -4.002519 C 1.791069 -4.002519 -0.0019 -2.20955 -0.0019 0.0013875 Z M -0.0019 0.0013875 " transform="matrix(1, 0, 0, -1, 538.3769, 313.6342)"/><g clip-path="url(#clip-2)"><path fill="none" stroke-width="0.478" stroke-linecap="round" stroke-linejoin="miter" stroke="#00285C" stroke-opacity="1" stroke-dasharray="1.796 2.694" stroke-miterlimit="10" d="M -0.0013625 -0.00001875 C -20.571675 -19.066425 -19.360738 -23.250019 -19.360738 -23.250019 L -19.360738 -186.500019 C -19.360738 -192.968769 -0.231831 -198.210956 19.893169 -198.210956 C 40.018169 -198.210956 56.334575 -192.968769 56.334575 -186.500019 L 56.334575 -23.250019 C 56.334575 -23.250019 56.197856 -16.2383 36.834575 -0.00001875 " transform="matrix(1, 0, 0, -1, 546.2748, 317.6367)"/></g><path fill-rule="nonzero" fill="rgb(100%, 100%, 100%)" fill-opacity="1" stroke-width="1.5" stroke-linecap="butt" stroke-linejoin="miter" stroke="#00285C" stroke-opacity="1" stroke-miterlimit="10" d="M -0.00056875 0.000425 L -0.00056875 29.504331 C -0.00056875 31.0473 1.253337 32.301206 2.796306 32.301206 L 16.722087 32.301206 C 18.268962 32.301206 19.518962 31.0473 19.518962 29.504331 L 19.518962 0.000425 " transform="matrix(1, 0, 0, -1, 555.0826, 358.7973)"/><path fill-rule="nonzero" fill="rgb(100%, 100%, 100%)" fill-opacity="1" d="M 550.945312 383.351562 C 533.875 400.648438 534.878906 404.441406 534.878906 404.441406 L 534.878906 505.222656 C 534.878906 511.089844 548.417969 515.84375 565.117188 515.84375 C 581.820312 515.84375 595.359375 511.089844 595.359375 505.222656 L 595.359375 404.441406 C 595.359375 404.441406 595.246094 398.082031 579.175781 383.351562 "/><g clip-path="url(#clip-3)"><path fill="none" stroke-width="1.5" stroke-linecap="butt" stroke-linejoin="miter" stroke="#00285C" stroke-opacity="1" stroke-miterlimit="10" d="M -0.0013875 0.0010375 C -17.0717 -17.295837 -16.067794 -21.088806 -16.067794 -21.088806 L -16.067794 -121.870056 C -16.067794 -127.737244 -2.528731 -132.49115 14.170487 -132.49115 C 30.873612 -132.49115 44.412675 -127.737244 44.412675 -121.870056 L 44.412675 -21.088806 C 44.412675 -21.088806 44.299394 -14.729431 28.229081 0.0010375 " transform="matrix(1, 0, 0, -1, 550.9467, 383.3526)"/></g><path fill-rule="nonzero" fill="rgb(100%, 100%, 100%)" fill-opacity="1" d="M 544.394531 379.582031 L 544.394531 362.351562 C 544.394531 360.269531 546.078125 358.582031 548.160156 358.582031 L 581.210938 358.582031 C 583.292969 358.582031 584.980469 360.269531 584.980469 362.351562 L 584.980469 379.582031 C 584.980469 381.664062 583.292969 383.351562 581.210938 383.351562 L 548.160156 383.351562 C 546.078125 383.351562 544.394531 381.664062 544.394531 379.582031 "/><g clip-path="url(#clip-4)"><path fill="none" stroke-width="1.5" stroke-linecap="butt" stroke-linejoin="miter" stroke="#00285C" stroke-opacity="1" stroke-miterlimit="10" d="M 0.00193125 0.00146875 L 0.00193125 17.231938 C 0.00193125 19.313969 1.685525 21.001469 3.767556 21.001469 L 36.818337 21.001469 C 38.900369 21.001469 40.587869 19.313969 40.587869 17.231938 L 40.587869 0.00146875 C 40.587869 -2.080562 38.900369 -3.768062 36.818337 -3.768062 L 3.767556 -3.768062 C 1.685525 -3.768062 0.00193125 -2.080562 0.00193125 0.00146875 Z M 0.00193125 0.00146875 " transform="matrix(1, 0, 0, -1, 544.3926, 379.5835)"/></g></svg>